<?xml version="1.0" encoding="UTF-8" standalone="no"?>
<!-- Created with Inkscape (http://www.inkscape.org/) -->

<svg
   xmlns:dc="http://purl.org/dc/elements/1.1/"
   xmlns:cc="http://creativecommons.org/ns#"
   xmlns:rdf="http://www.w3.org/1999/02/22-rdf-syntax-ns#"
   xmlns:svg="http://www.w3.org/2000/svg"
   xmlns="http://www.w3.org/2000/svg"
   xmlns:sodipodi="http://sodipodi.sourceforge.net/DTD/sodipodi-0.dtd"
   xmlns:inkscape="http://www.inkscape.org/namespaces/inkscape"
   version="1.1"
   id="svg6426"
   width="160"
   height="120"
   viewBox="0 0 160 120"
   sodipodi:docname="torso-3.svg"
   inkscape:version="0.92.0 r15299"
   inkscape:export-filename="C:\Users\nfleetwood\OneDrive\modding\Ehrieana-SW\exported\ehrieana\torso\torso-3.png"
   inkscape:export-xdpi="96"
   inkscape:export-ydpi="96">
  <sodipodi:namedview
     pagecolor="#ffffff"
     bordercolor="#666666"
     borderopacity="1"
     objecttolerance="10"
     gridtolerance="10"
     guidetolerance="10"
     inkscape:pageopacity="0"
     inkscape:pageshadow="2"
     inkscape:window-width="1680"
     inkscape:window-height="987"
     id="namedview6428"
     showgrid="false"
     inkscape:zoom="3.55"
     inkscape:cx="115.60961"
     inkscape:cy="37.708094"
     inkscape:window-x="1672"
     inkscape:window-y="-8"
     inkscape:window-maximized="1"
     inkscape:current-layer="layer6" />
  <metadata
     id="metadata6432">
    <rdf:RDF>
      <cc:Work
         rdf:about="">
        <dc:format>image/svg+xml</dc:format>
        <dc:type
           rdf:resource="http://purl.org/dc/dcmitype/StillImage" />
        <dc:title />
      </cc:Work>
    </rdf:RDF>
  </metadata>
  <defs
     id="defs6430">
    <inkscape:path-effect
       bendpath-nodetypes="cc"
       vertical="false"
       scale_y_rel="false"
       prop_scale="0.92256697"
       bendpath="M 7.3797421,104.77321 C 84.007262,92.13197 130.94819,57.876844 186.33154,89.695737"
       is_visible="true"
       id="path-effect7076"
       effect="bend_path" />
    <inkscape:path-effect
       tgtlength_rdm="0.3;1"
       tgtlength="10"
       tgtscale="10"
       tgt_places_rdmness="1;-97917231"
       nbtangents="11"
       tremble_frequency="2.51"
       tremble_size="1.4;1"
       parallel_offset="0.9;1"
       ends_tolerance="0;1"
       strokeoverlap_rdm="0.1;1"
       strokeoverlap="0.7"
       strokelength_rdm="0.3;1"
       strokelength="99"
       nbiter_approxstrokes="7"
       is_visible="true"
       id="path-effect7059"
       effect="sketch" />
    <inkscape:path-effect
       tgtlength_rdm="1;1"
       tgtlength="10"
       tgtscale="15"
       tgt_places_rdmness="1;-97917231"
       nbtangents="11"
       tremble_frequency="2.51"
       tremble_size="1.5;1"
       parallel_offset="0;1"
       ends_tolerance="0.2;1"
       strokeoverlap_rdm="0.1;1"
       strokeoverlap="0.7"
       strokelength_rdm="1;1"
       strokelength="100"
       nbiter_approxstrokes="3"
       is_visible="true"
       id="path-effect5129"
       effect="sketch" />
    <inkscape:path-effect
       tgtlength_rdm="1;1"
       tgtlength="5"
       tgtscale="5"
       tgt_places_rdmness="0.1;1"
       nbtangents="10"
       tremble_frequency="5"
       tremble_size="1;1"
       parallel_offset="0.1;1"
       ends_tolerance="0.1;1"
       strokeoverlap_rdm="1;1"
       strokeoverlap="0.7"
       strokelength_rdm="1;1"
       strokelength="100"
       nbiter_approxstrokes="8"
       is_visible="true"
       id="path-effect4554"
       effect="sketch" />
    <inkscape:path-effect
       back_thickness="0.25"
       front_thickness="1"
       stroke_width_bottom="1"
       stroke_width_top="1"
       fat_output="true"
       bottom_smth_variation="0;1"
       top_smth_variation="0;1"
       scale_tb="1"
       scale_tf="1"
       scale_bb="1"
       scale_bf="1"
       top_tgt_variation="0;1"
       bottom_tgt_variation="0;1"
       top_edge_variation="0;1"
       bottom_edge_variation="2;1"
       bender="76.56184,61.264418 , 5,0"
       do_bend="true"
       growth="0"
       dist_rdm="75;1"
       direction="76.56184,56.264418 , 0.97886787,0.79674004"
       is_visible="true"
       id="path-effect4550"
       effect="rough_hatches" />
    <inkscape:path-effect
       effect="rough_hatches"
       id="path-effect4546"
       is_visible="true"
       direction="80.984707,24.016797 , 0.97886787,1.0173261"
       dist_rdm="75;1"
       growth="0"
       do_bend="true"
       bender="80.984707,30.401101 , 5,0"
       bottom_edge_variation="2;1"
       top_edge_variation="0;1"
       bottom_tgt_variation="0;1"
       top_tgt_variation="0;1"
       scale_bf="1"
       scale_bb="1"
       scale_tf="1"
       scale_tb="1"
       top_smth_variation="0;1"
       bottom_smth_variation="0;1"
       fat_output="true"
       stroke_width_top="1"
       stroke_width_bottom="1"
       front_thickness="1"
       back_thickness="0.25" />
    <inkscape:path-effect
       tgtlength_rdm="1;1"
       tgtlength="5"
       tgtscale="5"
       tgt_places_rdmness="0.1;1"
       nbtangents="10"
       tremble_frequency="5"
       tremble_size="1;1"
       parallel_offset="0.1;1"
       ends_tolerance="0.1;1"
       strokeoverlap_rdm="1;1"
       strokeoverlap="0.7"
       strokelength_rdm="1;1"
       strokelength="100"
       nbiter_approxstrokes="8"
       is_visible="true"
       id="path-effect4530"
       effect="sketch" />
    <inkscape:path-effect
       effect="sketch"
       id="path-effect7353"
       is_visible="true"
       nbiter_approxstrokes="7"
       strokelength="99"
       strokelength_rdm="0.3;1"
       strokeoverlap="0.7"
       strokeoverlap_rdm="0.1;1"
       ends_tolerance="0;1"
       parallel_offset="0.9;1"
       tremble_size="1.4;1"
       tremble_frequency="2.51"
       nbtangents="11"
       tgt_places_rdmness="1;-97917231"
       tgtscale="10"
       tgtlength="10"
       tgtlength_rdm="0.3;1" />
    <clipPath
       id="clipPath9526"
       clipPathUnits="userSpaceOnUse">
      <path
         sodipodi:nodetypes="cccccc"
         inkscape:connector-curvature="0"
         id="path9528"
         d="M 87.473721,206.28627 C 93.681794,170.2834 106.87226,137.40649 122.45347,107.37804 76.206017,62.044613 60.598487,35.845927 59.151367,17.871579 l -87.44934,25.330151 25.9332543,196.00715 z"
         style="opacity:1;fill:#f29729;fill-opacity:1;stroke:none;stroke-width:8.5640049px;stroke-linecap:butt;stroke-linejoin:miter;stroke-opacity:1" />
    </clipPath>
  </defs>
  <g
     style="display:inline"
     inkscape:label="shirt"
     id="layer6"
     inkscape:groupmode="layer">
    <g
       transform="translate(1.0503499,2.1430378)"
       inkscape:label="shirt lower"
       id="layer10">
      <path
         sodipodi:nodetypes="csccccc"
         inkscape:connector-curvature="0"
         id="path5127"
         d="M 63.08029,81.71016 C 68.624848,70.749404 71.359471,60.270443 68.897842,51.61769 65.656401,40.223865 66.607935,32.430681 67.024698,24.102073 80.282749,16.471421 80.745517,17.159147 93.252784,23.793368 93.319974,32.706341 96.666322,40.135321 100.331,55.028 93.401078,63.083419 93.754693,69.980459 99.577462,80.704225 83.493481,89.954813 80.702657,91.416644 63.08029,81.71016 Z"
         style="opacity:0.98999999;fill:#f297e5;fill-opacity:1;stroke:none;stroke-width:1;stroke-linecap:butt;stroke-linejoin:miter;stroke-miterlimit:4;stroke-dasharray:none;stroke-opacity:1" />
    </g>
    <g
       transform="translate(1.0503499,2.1430378)"
       inkscape:label="shirt stroke"
       id="layer11">
      <path
         transform="matrix(1.000000,0.000000,0.000000,1.000000,0.000000,0.000000)"
         id="path7350"
         d="M63.6906732556 83.4576696558C66.6367494114 77.7841104445 68.9423460683 71.2343269727 69.9337068765 64.7980582291C70.919423317 58.3984397963 70.6012037923 52.118513539 68.2715404533 47.1820490762C68.4813898036 46.7343145223 68.4917233079 46.1039169362 68.5 45.5C68.5 45.5 68.5 45.4999989966 68.5 45.4999989966C68.3776245056 39.821697663 68.28225961 36.65805315 68.1058582855 33.9242253099C67.9155507341 30.9748841308 67.6489314893 28.8632547379 67.5212251972 25.629362709C70.7626151078 23.6428504479 73.0929577882 22.1468367135 75.0016588814 21.104961155C76.9028723867 20.0671721227 78.3482379333 19.5026134603 79.7763974535 19.3837821342C81.2013006837 19.2652207016 82.601119703 19.5923755686 84.3811582841 20.3298445559C84.6564843718 20.443912114 84.9408811996 20.5677921511 85.2357776588 20.7013341688C85.4447844032 20.7959774336 85.6596540517 20.8959252561 85.8809690381 21.0011706132M69.3402670714 54.8687848061C69.1861455735 51.2584959216 68.5640043365 47.8714449438 67.2676676996 44.9309761318C67.5331418538 38.0400344424 67.5516205328 34.6880736115 67.4378076125 31.4246959866C67.3328251415 28.4144793126 67.1308807787 26.2561503463 67.1024661139 22.9386877026C70.0861967684 21.0856793331 72.3470201803 19.614212849 74.1946112032 18.52783198C74.4220827827 18.3940792648 74.6434353455 18.2669605077 74.8590792651 18.146401463C76.8187477728 17.0508081011 78.3340933929 16.4795893943 79.8028581465 16.3731310222C81.2737518987 16.2665181386 82.7348827141 16.6224984164 84.5922465623 17.4329921121C86.4539178501 18.2453660311 88.7274865765 19.5204173904 91.8460482025 21.292067468C93.1157125318 27.4374674498 93.8664015741 31.2968759083 94.4522034856 34.0951580892M67.9034343295 30.1886647821C67.7267294274 28.5337290234 67.5547235506 26.8963202784 67.4520569712 24.8338385619C70.6433615235 22.9152431021 73.0150036114 21.4415241625 74.9233358628 20.4384289651C76.8395275105 19.431202092 78.3074992048 18.8871523131 79.7564790058 18.7885930868C81.2043176714 18.6901071028 82.6289558894 19.0369842498 84.4531239728 19.8028983891C86.266884388 20.5644430658 88.5101042549 21.7571839816 91.522939793 23.3238194706C92.0192614678 25.9428152219 92.399130976 28.086106414 92.7079761828 29.9061466606C93.4731153207 34.4151492448 94.1399052073 37.4788619883 94.6824893381 39.4868603675C95.4222120107 42.2244336048 96.706358079 45.8851504033 99.8598073955 53.6119547584C98.8925775448 55.4499564566 97.6925649901 57.0986585822 96.6416406762 58.751437201C96.1280180453 59.5592088868 95.6477533509 60.3712828129 95.2460638323 61.2097771895M86.9209714806 21.9302528313C88.3435479419 22.6991598769 90.0258206946 23.6536853108 92.1239621159 24.7624893996C93.9122872776 33.3407460212 95.3904985352 38.6717664454 96.0339871111 40.6500374282C96.9115992746 43.3480707905 98.2410763004 46.5217545327 101.50000647 53.5984169489C101.265341979 53.9996349614 101.016200696 54.3886846975 100.758209186 54.7687256149C99.9649520386 55.9372242901 99.0394794338 57.0748367331 98.1544587903 58.2635984779C96.9796758079 59.8415684837 95.8826442876 61.5011566416 95.2556418537 63.4440836376C94.6258815114 65.395555918 94.4807002251 67.5915585825 95.1297501052 70.327975994C95.7718374777 73.0350352314 97.2146656299 76.334116032 99.6688205028 80.3320660565C96.93895389 83.4489688566 93.7905793624 85.7677208153 90.1895785562 87.1191931245C88.0660829673 87.9161500138 85.8632161765 88.3912475641 83.5629405327 88.5230297569C80.7914956561 88.6818042932 77.8822631403 88.3415902006 74.8366105679 87.458588507M97.0515169012 44.9286845468C97.6871490472 46.7959370639 98.6370799193 49.5875531805 99.7289525984 53.0674414453C98.5853085682 54.9668614351 97.1787722766 56.6905086254 95.896019501 58.4499051441C94.6124746547 60.210386253 93.4572116125 62.0006108111 92.8087510883 64.0423970265C92.1591444844 66.0877891772 92.0211056769 68.3707617077 92.7369010954 71.1691973969C93.4533293792 73.9701052688 95.0181255147 77.2682820772 97.7571310985 81.394164552C97.6711899633 81.5035395782 97.5847692349 81.612022652 97.4978788017 81.7196087569C93.5575623004 86.5984464778 89.0198446525 89.263971238 83.505945076 89.5175907064C77.7835766906 89.7807979097 71.6811093832 87.4937619293 64.0157524473 82.735114031C63.925954789 82.6793695194 63.8357586232 82.623194583 63.7451590058 82.5665912287C64.5782115163 81.2118260202 65.3501500011 79.7882380115 66.0537983605 78.3034925747M63.4561432499 80.6019082212C66.0983382364 75.3316679766 68.5355075969 68.8003656765 69.8211636423 62.5032595546C71.1137604406 56.1721629258 71.2512464799 50.0524248837 69.298746161 45.3737316315C69.3942729233 44.6630837518 69.4491828911 44.0688839789 69.5 43.5C69.5 43.5 69.5 43.5 69.5 43.5C69.9007672245 38.695812035 69.8280628634 35.0657115752 69.6983076697 32.6872911165C69.5419207117 29.8207138822 69.2678049791 27.7540493206 69.1094155955 24.5964568397C72.3673846003 22.6705361337 74.5370220054 21.317608006 76.4766395594 20.3262135374C78.3466033608 19.3704209091 79.7868090771 18.8750954054 81.2046311376 18.8337214595C82.0873467666 18.8079662109 82.9639512897 18.9582145257 83.9321284607 19.2875937552M70.8629855727 57.5220620276C71.0011717193 53.8245173304 70.4342677601 50.2528773719 69.0244712232 47.1584319045C69.2000033466 40.7571559855 68.9088081607 36.3878919292 68.6287276723 33.5615890009C68.3262803385 30.5095809995 67.9589692518 28.315553874 67.6699782171 24.9565407002C70.1572813898 23.2108485422 71.9418449582 21.9075898176 73.5764580068 20.8176923087C73.9679712484 20.5566452554 74.3431802967 20.3168475363 74.7028564564 20.0983804207C76.5083915999 19.0016994587 77.9532765645 18.4197552511 79.3634261215 18.2984587655C80.7810830436 18.1765161412 82.194613486 18.5129035676 84.0224175785 19.2834139202C85.8650228092 20.0601639259 88.0999086308 21.2628457455 91.2542587915 22.9124598899C92.5176013896 28.6329022823 94.2579217376 36.4973301646 94.4381083879 37.267295714M66.9097032428 27.7491721776C66.8299028792 26.0401162839 66.7408636704 24.4561614687 66.7250835687 22.3808813903C70.061703891 20.5637618108 72.5387862885 19.2253276574 74.4980562888 18.3607890758C76.4698688891 17.4907161759 77.9948795496 17.0627757134 79.4795875654 17.0872065783C80.9687750812 17.1117076758 82.4402443452 17.590346949 84.3335895544 18.5671360746C86.2144643498 19.5374919062 88.5647432771 21.0295415195 91.7714165687 23.0827154276C92.4175839449 26.0480816488 92.9580825867 28.5066794908 93.4324042801 30.6367529326C94.7046089706 36.3499342913 95.1817231822 38.6902506271 95.8331868502 41.1242972055C96.5899276672 43.9516907438 97.7750935967 47.3833313109 100.38432421 54.2540761497C99.5007097143 55.5066972661 98.4700993888 56.6212754669 97.4779919973 57.723037246M84.3154925723 20.1162786629C85.9478193948 20.9439913526 87.8309260294 22.0122000727 90.3608734484 23.3767787633C92.2121874995 32.3303917967 93.3973761724 37.4321042223 94.0669388003 39.7939096862C94.9409614307 42.8769203047 96.0511921487 45.7887392872 99.0858328644 53.7761080982C98.7217629363 54.1283247727 98.6119766218 54.3150658769 98.5 54.5C98.5 54.5 98.5 54.5000010033 98.5 54.5000010033C97.7883402594 55.9361888628 96.6231194766 57.4097573043 95.5419847424 58.9113013437C94.3351451529 60.5874302506 93.2379672824 62.2919561504 92.6372396375 64.2428073751C92.0357209108 66.1962291082 91.9367397831 68.3796300616 92.6915572828 71.03234141C93.4429652205 73.6730570532 95.0498844772 76.7990569643 97.8251453341 80.5699173329C95.5616203784 83.2454933624 92.9607070002 85.2754444038 89.990097424 86.5667686256C87.7747147322 87.5297951977 85.3909226187 88.0861406748 82.8143854334 88.1987995704C81.2023745771 88.2692828668 79.5150745004 88.1659408095 77.7504560786 87.878808415M97.4367904861 45.0490258709C98.0698555721 47.1639331133 99.03342667 50.1892026115 100.425875776 54.4075069984C99.3131946812 56.293086176 97.9644736049 57.9875076304 96.7627671464 59.7005326617C95.5612268152 61.4133199062 94.5015590712 63.1513928449 93.9698196811 65.123687045C93.4378518663 67.0968230312 93.4319919288 69.3099373344 94.3511981777 71.9859427853C94.9616316874 74.998358877 96.647455408 77.9218474852 99.5 81.5C99.5 81.5 99.5 81.5000010033 99.5 81.5000010033C99.9328143451 81.2361726062 100.110956049 81.456337341 100.293152047 81.6782297944C96.8270761533 86.4182349863 92.1266923366 89.0333067495 86.1925059002 89.064991625C80.5558304483 89.01800825 73.6775799991 86.7100138984 65.5788101808 81.5C65.5788101808 81.5 65.5788091919 81.5 65.5788091919 81.5C65.1326816494 81.2900850539 64.6816533558 80.9984256752 64.226394753 80.7026065278C65.5947544319 77.7212834903 66.8536145634 74.5719995101 67.882840496 71.4226854302M63.2775605178 82.1519377453C65.858797717 76.5933510877 68.0022740513 69.9083640986 68.7835631215 63.2388583516C69.5634598879 56.581232928 68.9789830382 49.9694833512 66.1965549814 44.6730142903C66.5923301085 43.8160600964 66.547386781 43.1443878933 66.5 42.5C66.5 42.5 66.5 42.4999989968 66.5 42.4999989968C65.779361251 38.8089756011 65.5548394173 31.7077438616 65.5222171868 30.901985841C65.410635117 28.1459394584 65.2614756788 25.6256203219 65.3797325002 22.650401489C68.8124099147 20.7853964109 71.7054677768 19.2358233979 73.7390074911 18.2970069601C75.890067332 17.3039359422 77.5291124156 16.7657485676 79.1330819267 16.6675244504C80.7400882025 16.5691187321 82.3117311499 16.9115150477 84.3387948717 17.6528357841C84.651609331 17.7672354416 84.9747335621 17.8909398974 85.3099376103 18.0237213978C86.0463861934 18.3154449891 86.8379978906 18.6595319004 87.6918706818 19.0545955422M69.6326192142 53.1211753018C69.5234005009 49.6712462005 68.9031202836 46.4776876735 67.6112760017 43.7555806286C67.8050326692 37.4383458819 67.6781718456 33.9050959928 67.4678212512 31.1734543889C67.2575448207 28.4428401858 66.9675046141 26.5151054755 66.7921485063 23.6163457185C69.7159309917 22.3265949424 71.9525987247 21.2218232004 73.7097176921 20.5C73.709718681 20.5 73.709718681 20.5 73.709718681 20.5C73.8457283641 20.2820443394 73.9794814867 20.227657321 74.1112796488 20.1747592308C75.9864547007 19.4221411006 77.402084476 19.0017165151 78.8487098201 18.998380473C80.2918267171 18.9950695139 81.6851628221 19.4081718632 83.5244227662 20.2250898228C85.3532068112 21.037355383 87.5979524768 22.2377576575 90.7012393045 23.7275377589C91.7185831903 28.3663419803 92.4018196649 31.4236976823 92.9156212779 33.758061315C93.4317021951 36.1027772131 93.7798997598 37.6615767656 94.1748423405 39.1736948044C94.4618645706 40.2726161818 94.7580178608 41.2884435221 95.1540313683 42.5669603521C95.8071919065 44.6756700809 96.7228669646 47.3849406378 98.2490504037 51.9825404746M67.1744179586 26.8341595292C67.1136529976 26.1476381762 67.0588913577 25.4206900123 67.013856067 24.6233970103C70.1958970529 22.8066647128 72.5220934765 21.4366289597 74.4214410177 20.5072969148C76.31497312 19.580810288 77.7711982401 19.0995413105 79.2014719261 19.0666233538C80.6315438862 19.0337144268 82.0416548781 19.4492016698 83.8385919527 20.324730629C85.60025074 21.1830706938 87.8609673558 22.5538479012 90.7950526912 24.3702661593C91.5175950475 28.8518198891 91.9795709226 32.2566416874 92.3077056671 34.807291216C92.7120294876 37.950175012 93.0980714106 40.1661186803 93.4734584524 41.8504828455C94.1140407919 44.7247826412 95.2198454081 48.2513253298 97.9864627088 55.4121683798C96.9025562222 57.0767380262 95.585476435 58.5110966853 94.3968346904 59.9630064376C93.2088070232 61.414166709 92.1568602361 62.8753280837 91.6108764318 64.5727133482C91.1935363512 65.8701668577 91.0767390754 67.2938311187 91.4228837831 68.9196966563C91.528883783 69.4175866486 91.6800436689 69.9415970982 91.8815934797 70.4963543183C92.0804506462 71.0437020131 92.3281491952 71.6204369784 92.6299784966 72.2323664358M90.6766851183 24.1009567579C91.089537788 24.320049946 91.5189497749 24.5471937813 91.9643070016 24.7811441458C94.0984910929 34.5122717155 94.691709395 37.7360813723 95.536412561 40.8484120388C96.2578058711 43.5064068753 97.4497404931 46.90693145 100.169950966 53.96682135C99.1274239832 55.5414603301 97.8711704659 56.9167504751 96.7273820633 58.2955121105C96.6735687326 58.3603868428 96.6199521833 58.4255003655 96.5665808694 58.490869735C95.3803054479 59.9438399975 94.3129464123 61.5239551034 93.7545683358 63.4069206298C93.1944261471 65.2958358494 93.1481152372 67.4694634534 93.983800072 70.2070878601C94.817738594 72.9389933373 96.540543405 76.2659433837 99.4958949934 80.5192506285C97.4944731951 83.3372340196 95.202964714 85.6069416439 92.5736020611 87.2511649449M98.5359866036 46.7188358625C98.998113773 48.1940627935 100.163078444 51.8697742236 100.625208579 53.3450011547C99.477266009 55.2245573964 98.0855793092 56.9178430917 96.8302157587 58.6388344913C95.5747622226 60.3599492996 94.4572308096 62.1065645128 93.8561145459 64.0948235557C93.2543337733 66.0852828815 93.1713542502 68.3105785042 93.9701024928 71.0142214338C94.771601722 73.7271701651 96.4459597026 76.8830570005 99.3380405789 80.7996346864C98.911336069 81.3387581596 98.4711930592 81.8537126343 98.0172456743 82.3439151814C94.4118326102 86.2372820407 90.1100204612 88.4285359871 84.8866713391 88.6726720659C78.9211936672 88.9514949564 72.0877995268 86.7237983866 63.516927988 81.7296509962C63.6054994697 81.5576617199 63.6936358564 81.384695209 63.7813124272 81.2107936029M64.0470852147 82.4910812943C66.6538901736 76.8157692814 69.0407101521 70.1649513903 70.2203315881 63.8953904417C71.4096447631 57.5743149823 71.4105159419 51.4771446384 69.2900126193 46.6519023156C69.4340237885 45.703405214 69.4689500442 45.0894881778 69.5 44.5C69.5 44.4999989967 69.5 44.4999989967 69.5 44.4999989967C69.7715417506 39.65267621 69.6781466483 36.1353389911 69.5264023508 33.6144589981C69.2453886911 30.6886336553 68.9710059684 28.5853197864 68.8195098727 25.3622656304C72.0708545573 23.3650710111 74.2863302012 21.9240713709 76.2144137843 20.8715897065C78.0928362264 19.8462157675 79.5271246519 19.293644784 80.9453224761 19.1898261492C82.3605913205 19.0862222251 83.7555095889 19.4308479197 85.5363273855 20.2019141122C85.8120223149 20.321285225 86.0971004617 20.4509403773 86.3930421377 20.5908123469C87.9998555873 21.3502480429 89.9694304153 22.4372098348 92.4977966599 23.8314848186C92.8113151817 25.5749004415 93.076354241 27.0669309917 93.3221077179 28.4686084775M69.5470439543 52.5835798864C69.3602161734 49.6371242583 68.7441870313 46.8361000013 67.5950439946 44.3549204149C67.768544027 37.8902356154 67.585026923 33.9225296975 67.3431062367 31.0135782064C67.0953918661 28.0350092849 66.773718281 25.899808873 66.5446141067 22.6391572712C69.683744845 20.6070149768 71.858865435 19.1272279522 73.7002504223 18.0724657393C74.1046846221 17.7171246724 74.3048015862 17.6054941807 74.5 17.5C74.5 17.5 74.5 17.5 74.5 17.5C75.820483788 16.91645841 77.088118993 16.4791078003 78.3364804819 16.4017557687C79.7499426935 16.3141758835 81.1596314455 16.6833347819 82.9892985353 17.5019684203C84.8148875993 18.3187790246 87.0941669465 19.5998302432 90.2608925913 21.3516577088C92.2358210644 30.2093723231 93.6912422479 36.4323862032 94.2748261641 38.5779609536C94.702212982 40.1492729215 95.1426378145 41.5703024618 95.7960534766 43.5673174865C96.5546108148 45.8856731335 97.5791466219 48.8809533687 99.096491701 53.4416340048C97.9994868796 55.3578495873 96.6480256941 57.073385931 95.4336540181 58.8039058698C95.2384704372 59.0820505153 95.0467666266 59.3606596985 94.860151449 59.6406484479M68.198169606 25.2487177925C68.1951041644 25.1270039254 68.1923353786 25.003610499 68.1897643631 24.8784080848C71.4981865793 23.0319554144 73.9066317644 21.5787443549 75.8579157952 20.5794768269C77.8132897182 19.5781143647 79.2980362993 19.0312663236 80.7717957448 18.9260420363C82.2428991336 18.8210083798 83.686280054 19.1580319117 85.5460250579 19.903466264C87.414427462 20.6523701001 89.6643438352 21.7958700305 92.7967582901 23.3102013953C93.907183812 28.2689746992 94.787526196 32.2204017349 95.2921057746 34.3984038182C95.7476916874 36.3649289229 96.0522096775 37.6859945874 96.4248299111 39.0959534843C97.3635481895 42.6479755082 98.1243452777 44.5735540818 100.899879059 53.3887168515C99.7624519406 55.2995666736 98.3760338448 57.0297645463 97.1274221765 58.7813642581C95.8786710799 60.5331586142 94.7676829012 62.306188258 94.1787947823 64.3087115147C93.5903763681 66.3096354779 93.5213248266 68.5492645436 94.3593176422 71.2235232127C94.3645585583 71.2402385397 94.3698291399 71.256973933 94.3751392756 71.2737193596C95.2195200757 73.9376648927 96.9474293412 77.0312103811 99.9054617077 80.7273614655C98.3415703718 82.6629571954 96.5865982023 84.241599426 94.6260555493 85.4319323715M92.0371676014 25.0825598174C93.3818848157 32.7545407095 94.3853343408 37.3409966606 94.9626182803 39.4903077782C95.7371386579 42.3739525052 96.8516718714 45.4376813019 99.6816360258 52.7839149862C98.6009591302 54.4617274657 97.279741986 55.9247419741 96.0871893313 57.4079342701C95.477050781 58.1667709836 94.9023428012 58.9289015997 94.4129341914 59.7251581711C93.9468328254 60.4834952307 93.5575929547 61.2913000261 93.290471373 62.1686008502C92.7418769992 63.9703294863 92.7097640275 66.0501455786 93.5721567684 68.6420045086C94.4323443691 71.2272334936 96.1957662798 74.3577413256 99.2211908938 78.2943844272C95.5762425343 83.162452501 90.8816197698 86.1784262307 84.9635002022 86.6411267474C84.419253811 86.6836775888 83.8644623011 86.7044162327 83.299469793 86.7024497236C82.5057261307 86.6996404249 81.6923408994 86.6553638716 80.8593131102 86.5685103907M99.5024589937 53.445370372C99.7211901094 54.0368902747 99.949061185 54.6648006282 100.184704638 55.3294455713C99.0992298324 57.1526874152 97.7316938673 58.8039771055 96.4697752163 60.4964551273C95.2067055415 62.1904762567 94.0577909297 63.9150525222 93.4013830011 65.8929974258C92.743689565 67.8748191615 92.5878652638 70.085508438 93.2585719934 72.7877517348C93.9276797493 75.4835557178 95.4195529874 78.6624948552 98.0036539024 82.5465749758C96.3014646797 84.4962362619 94.4250347744 86.1205316022 92.3606695739 87.3856591143C89.3427107931 89.2351849569 86.1075190074 90.2993412637 82.5498783765 90.4999994326C76.4527825138 90.8438896929 69.8755554516 88.7040479184 61.7597664999 83.7701860703C62.7633999514 81.9931642125 63.7221543507 80.1043984876 64.5843463548 78.1546609492C65.9895407739 74.9769930194 67.1152687819 71.5647687191 67.880834115 68.0498685667M61.9997233258 79.879388716C64.498989631 74.3163733997 67.0533241204 67.5885195233 68.4877213196 61.4700637255C69.9527244799 55.221057813 70.3471192364 49.2724010419 68.625133195 44.5876256581C68.3402904988 43.6655428916 68.4226045245 43.0715197031 68.5 42.5C68.5 42.5 68.5 42.4999989967 68.5 42.4999989967C69.5258716423 37.977031907 69.3773717683 34.0973523521 69.1942521828 31.7563276718C68.9650164913 28.8257415711 68.5975372997 26.7007670063 68.2441106852 23.4283675196C71.2031042158 21.4015618893 73.2621128046 19.8388845014 74.9406209973 18.766929381C76.6216171419 17.6933860034 77.9007793957 17.1083826702 79.180987855 16.9735182755C80.4546303364 16.8393461721 81.7096962425 17.1552859177 83.299074252 17.8914114583C83.5454378507 18.0055161393 83.8001305506 18.1298396441 84.0646020087 18.2643619065C85.5130893613 19.0011275658 87.3086914856 20.0541720931 89.8296037632 21.469583036C90.3262547256 24.3409240383 90.9149084865 27.0294890607 91.365442354 28.975577521M71.1316467972 54.9721047904C70.9233727921 52.1499385543 70.3008379921 49.4321578292 69.1711357876 46.9893923918C69.3056730698 40.4510708583 69.062740788 36.2482748033 68.7809812287 33.2409918396C68.4891472444 30.1261899935 68.1305341006 27.8759618454 67.8343560891 24.4114183712C70.862421927 22.1527854033 73.0250444155 20.415539201 74.7734674176 19.2013312304C74.9745744304 18.8468440373 75.241651514 18.6670489241 75.5 18.5C75.5 18.5 75.5 18.4999989968 75.5 18.4999989968C76.9375425298 17.7816330971 78.1230911451 17.3050907647 79.2842052251 17.1729172767C80.6697412648 17.0151972308 82.0786824447 17.3361184649 83.9032945227 18.1253939291C85.7314229586 18.9161904279 88.0300749073 20.2002686659 91.2727671362 22.0485784835C92.3059939642 26.3905823097 93.6467429149 31.703446638 94.1363641279 33.6266302845C94.8323726161 36.3604842111 95.3364597463 38.2671802844 95.8544639807 40.0012860921C96.3646325512 41.7091620805 96.8904121297 43.2628978721 97.6754954253 45.4632168233C98.4437890014 47.6164830319 99.6654682942 51.0145103409 101.012007963 55.2033331453C99.8899377187 57.1210376559 98.4851457623 58.8136079832 97.1928545193 60.5148590435C96.782866554 61.0545925356 96.3845875864 61.5947243462 96.010368379 62.1430653288M69.3813143217 23.9698508035C69.3813153105 23.9698798998 69.3790399619 23.9239488703 69.3790399619 23.9239789699C72.5830097317 22.0828870432 74.9025501919 20.6511229721 76.776133192 19.6723262014C78.6522753413 18.6921920038 80.0752878863 18.1643960242 81.4834745719 18.0801481678C82.8879135083 17.9961200387 84.265159012 18.3559029028 86.0124478008 19.1392487403C87.7398497853 19.913679068 89.8936991779 21.1358885232 92.7229365261 22.7304504473C93.4621499398 28.1485731759 93.830942327 32.1283048988 94.052901056 34.5199621706C94.2182925013 36.3020819021 94.4334449615 37.7828622146 94.678779165 39.055369152C95.2143068475 41.8330672006 96.2684854737 45.5350937324 99.3323794007 53.6120079343C98.3437122255 55.5553874281 97.1413521358 57.3200002126 96.0838252565 59.1142280213C95.0294745701 60.9030689998 94.1086485815 62.7365346842 93.7117737839 64.7961499126C93.3125326631 66.8680437828 93.439270869 69.1687389746 94.4875767026 71.9855555035C94.5351108226 72.1132882928 94.5845237615 72.2420555062 94.6358560625 72.3718942663C95.7132005264 75.0971708021 97.6171768844 78.2247088041 100.611196545 81.8251350439C99.7537925629 82.9633083434 98.8229811459 83.9736394914 97.8229767815 84.8519025002M92.6600168564 25.3354930143C94.2550441781 33.5886014107 94.9038527783 37.1960278207 95.5646166002 39.912733989C96.3537047468 43.1570384826 97.2438061122 45.6818133673 99.8159320283 53.6101688471C98.6464720366 55.3673801329 97.2314751265 56.9196621125 95.9450487653 58.5019363651C95.2746624237 59.3264966202 94.641514274 60.1565229681 94.0982468464 61.0251781755C93.6001600707 61.8215912649 93.1829702957 62.6569161506 92.8873984504 63.5523399609C92.2695962965 65.4239529108 92.1825545689 67.5565186018 93.002592797 70.1602317686C93.8235872452 72.7669819879 95.5547172019 75.851967142 98.5795099395 79.6703457938C94.9271095906 84.3840288608 90.237782129 87.1962531896 84.199219388 87.5121497923C83.6244105453 87.542219321 83.0369048416 87.5496137964 82.4365183507 87.5336108273C77.1618240725 87.3930214832 71.0701530523 85.5555936847 64.1154900468 81.7341358408M99.7572634337 52.4909151706C99.7572139911 52.4907686858 99.7913788308 52.5931555816 99.7912799456 52.5930090967C98.7021285876 54.5315716466 97.3463134863 56.2729756109 96.1127452248 58.0330885008C94.8783750041 59.7943441735 93.7674412123 61.5726532921 93.1635175973 63.5934851495C92.5585230556 65.617899866 92.4647432899 67.8724091846 93.2378397205 70.6277090963C94.0146878559 73.3963622065 95.6437208121 76.6121031561 98.4800838284 80.6992574425C96.4390159832 83.3456518824 94.116520833 85.4746668206 91.467363339 87.0576293513C89.0704738794 88.4898529433 86.4601189415 89.3298021352 83.630021292 89.538838034C77.5465527999 89.9881753191 70.8414681513 87.586772791 62.6292156893 82.0013513113C63.9317998937 79.5284521326 65.1788916964 76.8589441883 66.2834592585 74.1322670165C67.5988401979 70.8851843271 68.6171937015 67.5746285448 69.2755852673 64.2977602667M63.2391871235 81.9760957165C65.9877034868 76.2525309894 68.2343803806 69.624613899 69.1569002728 63.148607626C70.0775364019 56.6858261265 69.6822714555 50.3429083703 67.1804222685 45.2906325776C67.5239697747 44.7608654045 67.513211064 44.1174075898 67.5 43.5C67.5 43.5 67.5 43.4999989967 67.5 43.4999989967C67.030830702 37.8567026229 67.0249796641 34.5537630499 66.9292231831 31.9229291146C66.8293402222 29.1786968362 66.6594643328 26.7401192605 66.7316693237 23.7589988938C70.1563034151 21.8960265438 72.8704373911 20.424673435 74.9129637932 19.487950928C75.9612508386 19.0071956509 76.888917706 18.6388805454 77.7490420202 18.3828842097M71.0595268477 56.1816342754C71.1879569794 51.9871667875 70.5558678905 48.0354859117 68.9408707009 44.7016902063C68.971476662 38.3040362759 68.5988455509 34.2168117571 68.236711105 31.4299323186C67.8362705067 28.3482601302 67.4062019221 26.2543283154 67.0057613238 23.172656127C68.7165792697 22.0108606392 70.1023684555 21.0260258829 71.8131864015 19.8642303951C72.4522488756 19.4314198127 73.0590134625 19.0507498132 73.6291885444 18.7252243392C75.3700092517 17.7313506646 76.8198463875 17.2160440242 78.2405835839 17.1575082736C79.6762890343 17.0983524707 81.1177812473 17.4951006885 83.0321810952 18.3523692065C84.937408351 19.2055311319 87.3639791948 20.5397232444 90.7899828465 22.3610798481C91.9817958397 26.4529346931 93.7434338613 32.0751670149 94.2658928743 33.7428108366C95.1063251881 36.4253920529 95.7025258681 38.2913211897 96.3054813969 40.010179529C96.5324160296 40.6571098376 96.7609219485 41.2856001105 97.0089478075 41.9462809327C97.5358230341 43.3497473396 98.885677335 46.8234431076 99.891707764 49.6608808917M67.12750286 27.4465545276C67.0092084622 26.0399517393 66.8992807418 24.616108887 66.8337356698 22.8878343806C70.0290144186 20.9452776101 72.4896897823 19.4593974172 74.3692068836 18.5064010445C76.2903131264 17.5323168722 77.7694034735 17.0223970619 79.2182250582 16.9619409551C80.6690658788 16.9014005692 82.0975695196 17.2905947837 83.926363453 18.1242611798C85.7601164798 18.9601870547 87.9808627052 20.2349183548 91.0311816707 21.9498978553C91.6258921507 25.1005092291 92.0817371428 27.6401974765 92.4429381125 29.6931466407C93.1897557987 33.9378162955 93.7285338379 36.6661499501 94.2393303295 38.7405902489C95.0264872479 41.9373874958 96.0693316514 45.0095592382 98.9866569327 53.5585259115C97.9294474749 55.5308231215 96.627770048 57.3366503236 95.4720857547 59.1642596236C94.6709702002 60.4311509737 93.9343594452 61.7167181399 93.3924091685 63.0854977352M88.5387938205 20.0960938522C89.8426872652 20.7114526606 91.3367468552 21.4673436237 93.0459490169 22.3522997865C95.108879393 31.9731463312 95.4037046549 35.6828733513 96.0280015895 38.9285082485C96.6885389643 42.3625497627 97.4142486139 44.8611229211 99.5115435778 53.3729396297C99.0044800028 54.1127012052 98.4594534073 54.8211190346 97.8993240737 55.5118513257C97.0345373218 56.5782781478 96.1569152699 57.6105248353 95.3484001352 58.6560033194C94.0172440385 60.3772987253 92.8706779504 62.1376534156 92.2766487896 64.1434264289C91.6827560902 66.1487429312 91.6362305993 68.4110109307 92.5347688507 71.1643403202C93.4425953898 73.9461329214 95.2822152759 77.1613541508 98.5019938242 81.2771000742C96.1375555238 84.7640266354 93.278243228 87.338916398 89.7700808004 88.9341244608C88.4685121472 89.525964423 87.0799353873 89.9409500056 85.6051554464 90.172155284M96.6861172656 45.7585483566C97.3020831212 47.8010318799 98.1882211673 50.6020772068 99.3882505326 54.2677965635C98.2636033399 56.1378965055 96.9013251013 57.7974766369 95.6808245202 59.4679779167C94.4605108321 61.1382223463 93.3817958189 62.8198293857 92.8261182975 64.7304053011C92.2707334763 66.6399768923 92.2382704511 68.7789347411 93.1178622963 71.3434581918C94.0007598742 73.9176235568 95.7869214275 76.8863007371 98.8767905212 80.5224321593C98.8608897796 80.4602082913 98.8449791495 80.480124212 98.8290388537 80.5C98.8290388537 80.5 98.8290378649 80.5 98.8290378649 80.5C95.251542073 85.0436210797 90.5679469869 87.6634766771 84.5603264168 87.9351218096C78.7043898241 88.3163718669 71.3931418106 86.3419325666 62.6198601596 81.5C62.6198601596 81.5 62.6198581819 81.4999989967 62.6198581819 81.4999989967C62.4231023261 81.2749469474 62.2258144678 81.1652107257 62.0279926294 81.054323695C64.4175101965 75.7269413125 66.6452189295 69.440353004 67.7903946916 63.4356667781M61.7936425948 83.3915357558C64.4492009284 78.0515456423 66.7714063449 71.3626025587 67.8716783335 64.6225733826C68.9719473555 57.8825612628 68.8354036923 51.1736751689 66.5860420651 45.8347716521C66.4649353048 44.8216576239 66.4841783665 44.1469654247 66.5 43.5C66.5 43.5 66.5 43.5 66.5 43.4999989966C66.7897228521 37.8525177711 66.7923264997 35.0045110042 66.7024793987 32.161786722C66.6150945395 29.3969652945 66.4317989383 27.0986640266 66.47077751 24.1727574148C69.8278482825 22.4478510567 72.5366830002 21.0942687636 74.5257659021 20.2666513896C76.5919950887 19.4069357718 78.1889981368 18.9718436374 79.7482092358 18.9778535299C81.3170309881 18.9838734555 82.8519212699 19.4332609066 84.8613616699 20.33760725C85.1716080802 20.477233406 85.4926784654 20.6274516211 85.8267789546 20.7883421612C86.5308465873 21.1273934047 87.2835795868 21.5104472948 88.1001261782 21.9363279395M69.2901115045 55.7729676082C69.2326987522 52.2566046139 68.656147552 48.9803363216 67.4086651526 46.1557932182C67.7008927001 39.6200552361 67.6530362142 35.8853665943 67.513103755 32.9725733872C67.373309735 30.0626577046 67.1408246753 27.9872722777 67.0753290459 24.8163326181C70.308727671 22.8460563349 72.6226415626 21.4729474096 74.5 20.5C74.5 20.5 74.5 20.5 74.5 20.5C74.4740835476 20.6314679149 74.6207589894 20.5565629831 74.765000866 20.4841101677C76.7296798873 19.4972567298 78.238697843 18.9677450714 79.7284223055 18.8833497268C81.2194411754 18.7988801365 82.6864022627 19.1596743482 84.588611542 19.9443796855C86.5168058765 20.7398045038 88.7966192038 21.9254087977 92.0663891696 23.5332496745C94.3359382122 32.462756919 95.6953319692 37.1643228788 96.5584099845 39.6332077704C96.9441918395 40.7367614807 97.363631253 41.8156656021 97.8991767347 43.0778032175C98.248479836 43.9010160128 98.6720259522 44.9047031696 99.1171498099 46.0050653159M67.0502735117 29.1004849587C66.9982598918 28.0841870609 66.9561249042 27.0150793653 66.9389198666 25.7965149751C70.2273435382 23.8121277477 72.7525741328 22.2999344598 74.693272502 21.3220376679C76.6735032 20.324220942 78.1992525331 19.7968062244 79.6952858719 19.7188120674C81.194479582 19.6406533658 82.6715239941 20.0119954907 84.5815056508 20.8178528401C86.5281203221 21.6391663488 88.7969949677 22.8498827626 92.0807651012 24.5142156252C93.00982625 28.2078764669 93.7766751131 31.1504943924 94.3544485345 33.3065789297C95.2984215729 36.8292086666 95.7642163946 38.9097511635 96.2925007355 40.8469381602C97.1537602519 44.0051215974 98.1681316483 46.8170158335 100.683115758 54.8609819791C99.5104756175 56.6788690991 98.0889443728 58.2935887443 96.8077183848 59.9252936099C95.5263450577 61.5571850931 94.3913712827 63.1993194798 93.7860237207 65.069801687C93.4019357695 66.2566049494 93.2316356625 67.5355401642 93.3784001009 68.9468354845C93.4625217482 69.7557549696 93.6486345891 70.6156602151 93.9555515343 71.5371974596C94.6707961622 73.6847617954 96.043046974 76.169471065 98.3164604507 79.1411261019M92.4384971777 22.2310524636C92.8169862485 22.4498637185 93.2100193559 22.676179814 93.6184152692 22.9096636344C95.1591229677 31.977431515 95.9843427808 36.9531198067 96.49878517 39.3452978021C97.1724317571 42.4777801698 98.1130367652 45.2431443939 100.189411574 53.125659143C98.9524841821 54.8389159416 97.4767628542 56.3578304764 96.0846994018 57.9007163554C96.0305498613 57.9607350143 95.9766653333 58.020827919 95.9230784495 58.080997076C94.4953995114 59.684046092 93.2762269586 61.343581074 92.6197883757 63.2600414668C91.9647776953 65.1723340643 91.8658044784 67.3529437787 92.7176451787 69.9947731083C93.5741028293 72.6509037746 95.38451598 75.7637340949 98.5902567841 79.6263120443C95.4830580575 83.9242670711 91.5327897488 86.6438808635 86.4099050324 87.385402264C85.8584677087 87.4652164452 85.2955013586 87.5236368137 84.7207409695 87.5603814368C81.1645292299 87.7877299495 77.1746801386 87.1848464337 72.6802742122 85.7074613595M99.2229520394 50.3604333771C99.5590875863 51.4695876251 99.9365027635 52.7029359493 100.365951338 54.0965979042C99.185770212 55.9217721442 97.7722447139 57.5452006152 96.495014677 59.1907854227C95.2181416158 60.8359097058 94.0854382453 62.4939126167 93.4669626829 64.3834830049C92.8487165343 66.2723520715 92.7487959971 68.3832139239 93.5222691805 70.9034758712C94.29584026 73.4240488479 95.9391601511 76.3339645305 98.7455490829 79.7576417393C97.6221676209 80.9661267673 96.4057420992 82.0096427556 95.0914429642 82.8741271579C91.7873578532 85.0473995863 88.2004867545 86.3628446469 84.0481109224 86.6434855549C78.3550056369 87.0282591373 71.5407952269 85.4341757972 64.0055682595 81.3418243083C64.7500749985 80.229010949 65.4816584295 79.0609918614 66.184985412 77.8486119414C67.6095504548 75.3929748995 68.7814548888 72.7333215735 69.6766597198 69.9427017547M67.9185093796 33.5181522273L67.1809424046 17.396153177M74.6616589007 87.3204292063L61.7393041836 81.3682929181M93.6708244299 33.2123771263L97.5008137147 47.6625615497M94.7898638424 38.4400253935L100.719189082 56.5454494865M66.3206529522 75.4280289268L70.365742288 58.9211981014M61.5 85.37239631L67.6064968795 71.3138020313M93.7756506623 33.9375403822L97.7829035505 48.3625855961M63.1355396028 82.1733937637L68.2109702962 69.0543975097M66.6966095727 74.7601563001L70.6583881198 56.7114810431M67.6739395586 23.202601244L83.9864451173 15.5M89.5269507481 88.973395446L73.3375206873 87.5019399984"
         style="stroke-linejoin:miter;stroke-opacity:1;fill-opacity:1;stroke:#090101;stroke-linecap:butt;stroke-miterlimit:4;stroke-dasharray:none;stroke-width:1.0;fill:none" />
    </g>
    <g
       transform="matrix(1.000000,0.000000,0.000000,1.000000,1.000000,2.000000)"
       style="opacity:0.769"
       inkscape:label="shirt stroke 2"
       id="layer2">
      <path
         transform="matrix(1.000000,0.000000,0.000000,1.000000,0.000000,0.000000)"
         id="path4526"
         d="M95.0 37.0C95.3122729109 37.2718855823 93.6545279369 38.0099805633 94.0205809526 38.0218811208C93.8676689069 38.0169113733 95.5802695202 36.6611483343 95.70781656 36.1584871926C95.8428324254 35.626392224 94.9497040716 36.145446575 94.0811824622 36.7993957781C93.2088906919 37.4561827071 92.3411988401 38.259739203 92.5845151949 38.3108401354C92.6936232882 38.3337506717 95.8002841862 35.8051212435 95.8572011288 35.4480955724C95.9277103875 35.0058019544 94.9369143244 35.6329165086 93.9547723112 36.3746791633C92.9707140008 37.1178880145 91.9799310286 37.984551359 92.1374359439 38.0285882922C92.0563633872 38.0059262433 95.9378990862 34.8816586542 95.9668872329 34.4466457163C95.9975600695 33.9863218541 95.062640731 34.5562226864 94.1417658459 35.2453308657C93.2190270272 35.9358335561 92.2946578958 36.7545209455 92.4209995717 36.7987457351C92.2993373663 36.7561549985 96.0001792438 33.7119311576 96.0 33.445810121C95.9997542951 33.0803865705 94.7664726418 33.9537849168 93.5471146034 34.9339563017C92.3281956116 35.9137758285 91.1099986298 37.0077375355 91.3029283554 37.0816814156C91.3173182055 37.0872475329 92.5317913479 36.1263239803 93.7020758686 35.1226695442C94.877583633 34.1145343837 95.9962983143 33.0732818193 95.990875687 32.8956421684C95.9785803707 32.4929981904 94.5232801464 33.5463093503 93.065905528 34.7163896989C91.6097755461 35.8854701343 90.1351028979 37.1803686748 90.3189576529 37.2559018802C90.3307293358 37.2607722328 91.8051008947 36.0934769307 93.2158993243 34.8869554111C94.6338624693 33.6743071867 95.9723793422 32.4346414266 95.9620557073 32.2640309866C95.9384116428 31.8733233484 94.3575128993 33.0517568487 92.7480650557 34.3407553049C91.1410299539 35.6278205294 89.4897901186 37.0337402487 89.6146072156 37.0883418713C89.5690309652 37.0684032441 91.2253711917 35.7217497523 92.8107218266 34.3345252294C94.4034788538 32.9408181677 95.9065294143 31.5259866971 95.8880219926 31.3372824002C95.8484171776 30.933519235 94.0601585789 32.3079496398 92.2365929876 33.8050821181C90.4170976393 35.298874926 88.5439067012 36.925040936 88.7234092566 37.0080466538C88.741857266 37.0165946196 90.6213620152 35.5221855631 92.3972558154 34.0056531782C94.1833755729 32.480387953 95.8475632523 30.9474852196 95.8345539819 30.83533889C95.7968120936 30.5099824383 94.2443808844 31.7254008 92.6814196077 33.0475007569C91.1219495564 34.3666457019 89.5389744049 35.7992638991 89.7414715179 35.8935360346C89.7792335459 35.9111190015 91.3724618433 34.6356064522 92.8808121785 33.3181084815C94.3973543564 31.9934540744 95.8116158156 30.6403806628 95.7893916034 30.4670477951C95.7397471239 30.079839853 94.0944313956 31.3551337334 92.4278732678 32.7484899309C90.7647268133 34.1389924993 89.0632614668 35.6568518068 89.2377995743 35.7405085615C89.2506588035 35.7466710485 90.9625092112 34.3529431139 92.5835092145 32.9342610828C94.2134411961 31.5077616388 95.7362699963 30.0693616373 95.718615493 29.9471048532C95.6704412151 29.6135125358 93.8628615489 31.0769292526 92.0132018927 32.6529703888C90.1693525538 34.2240606624 88.2692166465 35.9147737538 88.4659205609 36.0110228549C88.5044680391 36.0298880167 90.4171641005 34.4957110401 92.2142076573 32.9348803133C94.0219675743 31.3647422434 95.6947821149 29.7832960098 95.6761055193 29.6610799777C95.6253332139 29.3288275042 93.8773239022 30.7464609185 92.0956812108 32.27644641C90.3193946855 33.8018338911 88.4952168457 35.4467974743 88.6967744395 35.5462132986C88.739460636 35.5672651493 90.5783606317 34.0843988284 92.3061284894 32.5686695548C94.0441384162 31.0439559715 95.651652844 29.5017488768 95.6286502305 29.3591946497C95.5718561403 29.0072331513 93.6964568788 30.5395236117 91.748912004 32.1796625641C89.8077262548 33.8144461164 87.7802467191 35.5639354184 87.8901906119 35.6195955972C87.839539145 35.5939516997 89.8772083863 33.8955593544 91.7967328293 32.1675294224C93.7260250503 30.430707013 95.5150197567 28.6906274311 95.4870013389 28.5376536313C95.4212954102 28.1788875545 93.3172526075 29.9463931854 91.1070954851 31.829093589C88.906029445 33.704049138 86.5836838549 35.7010915057 86.70128488 35.7626736356C86.6626769825 35.7424567025 88.9981909471 33.813568459 91.1747529554 31.8502816107C93.3637180277 29.8758068668 95.3655949084 27.900500187 95.3313100079 27.7315069029C95.2558363012 27.3594845215 93.1189324783 29.1807946274 90.8882489244 31.1308470379C88.6672052611 33.0724717505 86.3338704173 35.151869793 86.5253953954 35.2538818133C86.5688670421 35.277040837 88.9229579104 33.3591585964 91.0985048754 31.4052605953C93.2905583781 29.436539825 95.2747918323 27.4555358267 95.2369703921 27.2783215861C95.155766927 26.8978635552 93.11446951 28.6395920994 90.9821897733 30.5040008501C88.8583908845 32.3609927495 86.6256248806 34.3497376267 86.7677893497 34.4262339691C86.7540741812 34.4188787427 89.0051754118 32.5309978743 91.0980436752 30.613226956C93.2022355121 28.6850801988 95.1231032763 26.7581400964 95.0917356183 26.620710673C95.0139357707 26.2798764394 92.9808805458 28.0596384617 90.8581148261 29.9594666033C88.7447231522 31.850905811 86.5258475328 33.8699850334 86.7022767626 33.9658365547C86.7296366106 33.9807060394 88.970440388 32.101407925 91.0439382415 30.1948159569C93.1326597307 28.2742252039 95.028795884 26.3474988006 94.9931565855 26.1975068493C94.909264464 25.8444301396 92.834292381 27.6745545898 90.6608127611 29.6277707416C88.4972036319 31.5721178819 86.21828236 33.6477250009 86.388619316 33.7412665835C86.4110751353 33.7535915575 88.7130856216 31.8113992997 90.8342361335 29.8257754241C92.9723151108 27.8243050113 94.8987474875 25.8050896179 94.8432564391 25.5841505443C94.737329419 25.162396893 92.3930445941 27.2467418222 89.9109525346 29.4760701911C87.4414931322 31.6940526263 84.8101524471 34.0692878139 84.9937081269 34.1725889868C85.0369380965 34.1969208709 87.6948622423 31.9810068447 90.1228317493 29.7480028505C92.5709379836 27.496479589 94.7591296895 25.2533035155 94.7270309587 25.130504035C94.6432596758 24.8100179358 92.3835567587 26.8852662391 89.9623370883 29.0751179152C87.5546765035 31.2527052482 84.9731816954 33.5493239991 85.0809082019 33.6102610559C85.0374768348 33.5856906239 87.6357984026 31.3535175715 90.0202207388 29.0930477704C92.419374294 26.8186119847 94.5737110831 24.5577793921 94.5313521575 24.4060798356C94.4339563349 24.0572731329 92.1447416376 26.1801823093 89.70457852 28.433435043C87.2783279406 30.6738419731 84.6839618194 33.052241896 84.8554829925 33.1501846871C84.8862162484 33.167727896 87.5116197357 30.9288367389 89.8962928118 28.6576879442C92.3009334414 26.3675209196 94.4337932029 24.0714319438 94.3588874371 23.8795072504C94.2130192683 23.5057653364 91.8948567039 25.6495921803 89.4208094668 27.9207896784C86.9602498192 30.1796055475 84.3248318421 32.5750059829 84.4415859908 32.6425031064C84.4086575024 32.6234689733 87.0346581332 30.3344350511 89.4039303438 28.0225939634C91.7812463699 25.7029046503 93.8922071762 23.3839498659 93.72788697 23.2658219481C93.419216125 23.0439227193 91.0318080711 25.2695605537 88.5342255242 27.5895271787C86.0497136739 29.8973517164 83.4381623055 32.3093322236 83.5914026292 32.3994118801C83.605973737 32.4079598459 86.3011423193 30.0600433606 88.7374416262 27.7167865106C91.1880985596 25.359721714 93.3741826409 23.0118151682 93.2899682835 22.9513919834C93.0611324077 22.7872054391 90.7686258686 24.9955982494 88.3537965404 27.2864878753C85.9518908886 29.5651161401 83.4143681999 31.9339811053 83.5763109088 32.0294290831C83.5983035139 32.0423901847 86.2263805528 29.7432815903 88.6040550664 27.447535527C90.9954588464 25.138535147 93.1308662861 22.8372776337 93.050466397 22.7796792534C92.8255889887 22.6185759405 90.4311904282 24.9457954151 87.8908522027 27.3580621798C85.3649471278 29.7566233746 82.6789552218 32.2484945618 82.8463678863 32.3481648371C82.8770205832 32.3664137502 85.6611695943 29.9504226567 88.1638444765 27.5348659191C90.6817973718 25.1045619527 92.9112957015 22.6799920809 92.8097047693 22.6073472929C92.5660732274 22.433131798 89.965323813 24.9707564692 87.1688835135 27.5963486542C84.3896566569 30.2057782261 81.3991426941 32.9122560345 81.5356045934 32.9949377248C81.5283542841 32.9905643469 84.5968704989 30.3561796846 87.3365620227 27.7019836205C90.0865187762 25.0378430916 92.4966092216 22.3837136222 92.3651157982 22.2900984873C92.0916472192 22.0954056446 89.6553821499 24.4543818061 87.0653631934 26.899915067C84.4900140295 29.3315966475 81.7455443504 31.8589369231 81.8656457253 31.9317149004C81.8388397203 31.9154737654 84.6426078672 29.4438264689 87.1691433162 26.9625269287C89.7042754168 24.4727847813 91.9548640909 21.9987172178 91.8653479447 21.9354046217C91.6325989158 21.7707906792 89.0893233081 24.2974312143 86.3479501153 26.9083119525C83.6235335836 29.503043993 80.6862167519 32.1908246171 80.8113188262 32.2677473639C80.7924780917 32.256167852 83.7973859326 29.6318926502 86.4765544919 26.9881171529C89.165733513 24.3344637852 91.5188435757 21.690942739 91.3769942936 21.591462308C91.091738927 21.3914120774 88.6267324229 23.8129265484 85.997622215 26.3237245222C83.3839239494 28.8198040916 80.5895107156 31.4152607213 80.7097460198 31.4895017923C80.6844605658 31.4738868454 83.5407773439 28.9362830472 86.0983803686 26.3844786922C88.6650321822 23.8236452999 90.9248196863 21.2757004509 90.8072287311 21.1942751128C90.5428361297 21.0111955762 88.2557199942 23.2817390556 85.839688323 25.6393902825C83.4371371923 27.9838855935 80.8901548639 30.4251259865 81.0403530786 30.5176636801C81.0530109103 30.5254164863 83.6842780853 28.1465971167 86.0475798676 25.7722654292C88.4252584092 23.3834906612 90.5301098228 21.0029587166 90.4312488334 20.9352061481C90.1848500901 20.7663430713 87.734171003 23.2446498296 85.0967773166 25.8053192202C82.4754360166 28.3504044765 79.6524102424 30.9871457931 79.76428453 31.0572271854C79.7313157621 31.0365729145 82.6097278581 28.4523588478 85.1678071878 25.8467042961C87.7352968149 23.2314650893 89.9731863707 20.6235403569 89.8002282265 20.5075394911C89.4797796568 20.2926158 87.0148839213 22.754841449 84.3953833943 25.3162592837C81.7917217723 27.862189397 79.0132813728 30.5201803603 79.1702133123 30.6193536608C79.1953980675 30.6352667925 82.0720418936 28.047604715 84.6141524169 25.454791991C87.1732689437 22.844634848 89.3903591744 20.2345562271 89.2135080169 20.1189231226C88.8867637618 19.9052836142 86.520468206 22.2782585607 84.0101492823 24.7418300174C81.5142594812 27.1912406753 78.8562960629 29.7428859984 78.9712658299 29.8157802678C78.939898172 29.795891338 81.6567079208 27.2968080531 84.068975473 24.7763210594C86.4895657762 22.2471389954 88.5983112102 19.7226434033 88.4156376514 19.6084555014C88.0788164733 19.3979141337 85.7527369738 21.7521759927 83.2918379714 24.1969936099C80.8449844295 26.627856176 78.2448361865 29.16149014 78.3675698265 29.2399167323C78.343603526 29.2245999703 81.011357883 26.7478338339 83.3807338133 24.2520097094C85.7578645537 21.7480183019 87.8308891231 19.2494777134 87.6621905357 19.1497845773C87.3360081796 18.9570269542 84.9824026792 21.3843272053 82.4908993153 23.9076161427C80.0143255468 26.41578512 77.3792700852 29.0340121391 77.5550951225 29.1475102401C77.5978920876 29.1751420365 80.3570466642 26.6348883689 82.7941223583 24.0936705702C85.2465012402 21.536495906 87.3730854562 18.9801780263 87.2246021411 18.8958851439C86.9168577245 18.7211796319 84.6238607826 21.1113757477 82.1792014662 23.5811255945C79.7486198338 26.0366520238 77.1495440325 28.5834289821 77.253515483 28.6507690617C77.2107789371 28.6230875677 79.8587832499 26.1193386838 82.2103697406 23.6036017749C84.5689729196 21.0803595531 86.6289640509 18.5676492204 86.4694441537 18.4845252226C86.147234363 18.316625283 83.6710160611 20.9391541155 81.0093922435 23.6511890957C78.3646938704 26.3459780578 75.5127957531 29.1459815457 75.6653624022 29.2467958569C75.6904061792 29.2633451163 78.6499431951 26.523160492 81.2541677231 23.7959647999C83.8752431785 21.0511245161 86.1422991177 18.3165388094 86.0186843638 18.2560500239C85.7290919023 18.1143436357 83.5492612129 20.4360427147 81.2296586564 22.8265747854C78.9227703231 25.2040046136 76.4606186283 27.6617634535 76.5601109988 27.7266663688C76.5111109912 27.6947009524 79.0172025818 25.2730334133 81.2335738235 22.8387238303C83.4555489502 20.3982587179 85.3885770944 17.9636201376 85.1783886115 17.8749479137C84.7911072941 17.7115654745 82.5829570977 20.0240307626 80.2631118572 22.4096894988C77.9555337375 24.7827330277 75.5179696544 27.2428028003 75.6222794527 27.3115542881C75.5783043123 27.2825707203 78.0665843095 24.8609091448 80.2708978839 22.4325682286C82.4797630415 19.9992128372 84.4091841568 17.574218549 84.2273252508 17.5134872398C83.8603125761 17.3909233253 81.4940099713 19.9413460905 78.9850524946 22.5693953186C76.4905573711 25.1822957622 73.8294068377 27.8921818235 74.0086908768 28.012797597C74.0579929806 28.0459656922 76.8787238305 25.3908969405 79.33417201 22.7421526895C81.8026788023 20.0793221861 83.9136919719 17.4125626002 83.6972460692 17.3519147827C83.2903858956 17.2379127494 81.0912965718 19.5787582778 78.7843518472 21.9769874935C76.4887790314 24.3633956677 74.0662996198 26.8230937031 74.1627388044 26.8876924699C74.11108035 26.8530930873 76.576815913 24.4246656975 78.7437289679 21.9959450926C80.9129742057 19.5646113944 82.795428421 17.140823761 82.5492995503 17.102432461C82.0903600016 17.0308482171 80.0059020971 19.2356807002 77.8675381423 21.4881879718C75.7382068647 23.7311811585 73.5352919958 26.0393336996 73.6653998046 26.1268111963C73.6452298467 26.1132437854 75.9447993955 23.8360050621 77.965496871 21.5599223021C79.9867270428 19.2832411844 81.7441738406 17.0095180605 81.4912055114 17.0C81.0058859134 16.9817411474 78.8181614496 19.3194288983 76.5599992232 21.6828977116C74.3101285312 24.0376873578 71.9665485974 26.4407044283 72.0671718147 26.5097053974C72.0197225678 26.4771734299 74.4180473723 24.0975817615 76.5162254803 21.733427123C78.6126322975 19.3712683351 80.434106376 17.0185560435 80.1449005978 17.0497441913C79.5927603359 17.1092917066 77.5217426924 19.294549348 75.4396703411 21.4792175774C73.3622099921 23.6590472605 71.2488434929 25.8639970297 71.3570946399 25.938725136C71.314841448 25.9095527177 73.4980062728 23.7177340156 75.4313969325 21.5456342778C77.3611825772 19.3775838904 79.0694168931 17.2171064042 78.840049328 17.2708741031C78.3097103437 17.3951953203 76.3440296256 19.4810530407 74.3899564514 21.5402192409C72.4370141241 23.5981946895 70.4672621559 25.6603019863 70.5690242759 25.7311656168C70.5190777002 25.6963873233 72.5502800684 23.6382379335 74.3477797906 21.6109099242C76.140377498 19.5891122499 77.7305213929 17.5815449508 77.4594947585 17.6755795324C76.8373698783 17.8914315724 75.1802744113 19.580211432 73.6288119239 21.2194985696C72.0752941752 22.8609574869 70.6033283092 24.4800406128 70.7294182382 24.5673560957C70.6984936547 24.5459364836 72.2917118822 22.8978986145 73.7102852616 21.2835914161C75.1249213201 19.6737629542 76.3879493816 18.0842289534 76.1166236719 18.202222688C75.4380430494 18.4973223226 74.0554040159 19.8502098657 72.8317562112 21.1317348155C71.6044349164 22.4171083379 70.5164665819 23.6537157153 70.6347483305 23.7354988752C70.5924045097 23.7062171226 71.7810343271 22.4368034475 72.8507731685 21.2055097242C73.9179854785 19.9771233032 74.8812988411 18.7781369148 74.6339223131 18.9042611564C73.9188746484 19.2688279225 72.6821742728 20.4457367043 71.6378618636 21.5361142294C70.5889032145 22.631343222 69.7134122452 23.6618014946 69.8507925171 23.7577235863C69.827279361 23.7413035404 70.8806979574 22.6292102064 71.8263648725 21.5549883367C72.7699513517 20.4831300789 73.6179082642 19.4420534437 73.3718367918 19.579483861C71.8486354062 20.4301923279 69.5778314598 22.911335818 69.8002437629 23.0664257363C69.7160495452 23.0077131386 72.3101065213 20.1867045157 71.78720716 20.5026413079C70.0831840654 21.5322149654 68.8451665503 22.8541886907 69.1354628959 23.0584304064C69.1041053079 23.0363746667 71.0357589143 20.9582111095 70.1593002301 21.5170542535C67.9619862251 22.9180966626 68.3136584536 22.513534362 68.6559687201 22.7559954244C68.6650316068 22.7623567013 68.8691308368 22.3507005831 68.8691308368 22.3507005831C68.8691308368 22.3507005831 67.7973669437 23.3000903455 68.0 23.445155289C68.5424621058 23.8335022972 70.8591887062 21.3615896162 69.5218812251 22.2062141181C69.523492405 22.2052201686 68.2286918766 23.5724772398 68.4749657534 23.7475902711C68.7606118312 23.9506998783 69.8319537965 23.0904972056 70.6146045542 22.2918597658C71.4005431259 21.4898657585 71.8945691371 20.754931537 71.1649755392 21.1918011725C70.9145276995 21.3417662871 68.8573772797 23.5566953094 69.1396267889 23.7555856009C69.4528139724 23.9762761871 70.7344471333 22.9220008963 71.7233258924 21.9061974153C72.7132106319 20.8893602268 73.4149912374 19.9077625243 72.7634270803 20.2686447196C72.6557348113 20.3282916298 71.7266580138 21.3341049243 70.8301089237 22.3361541319C69.9317180536 23.340262803 69.0515385509 24.3563654628 69.1798247195 24.446883451C69.4740261623 24.6544727886 71.0570033277 23.2926874095 72.3383666161 21.9575567745C73.6189454612 20.623242172 74.6124483065 19.3015556982 74.0356227552 19.593422015C73.9608035903 19.631281552 72.9142979625 20.7945364493 71.8834066816 21.9619192189C70.8510744016 23.1309340537 69.8176626312 24.322340583 69.9641138457 24.4246587399C70.2783815267 24.6442231812 72.0001356556 23.157367147 73.4265685717 21.6721481476C74.8511375541 20.1888693377 75.9979058977 18.688713265 75.5288350486 18.8913825526C75.5025929566 18.9027235165 74.1669439838 20.4459056757 72.769206181 22.0103066691C71.3749203311 23.5708421928 69.9143797443 25.1641869961 70.0463283261 25.2565159603C70.3487195975 25.4681119084 72.3956017667 23.6721554667 74.1235770638 21.8670864959C75.8498414894 20.0638056402 77.2797031977 18.226635082 76.8795918536 18.3647393971C76.8792162473 18.3648696044 75.2168270474 20.3242512251 73.4265595088 22.3108581168C71.6418757155 24.2912697213 69.7223794681 26.3174924587 69.8685094536 26.4203254814C70.1884555367 26.6454729372 72.6749924386 24.4798179681 74.7812637045 22.2938407072C76.8875430262 20.1078545008 78.6383185324 17.873110101 78.2662054664 17.9600349617C78.2531750493 17.9631162052 76.4715827073 20.0785906392 74.5359082002 22.2190658853C72.6065827487 24.352520866 70.5160094096 26.532000679 70.6534722544 26.6278850006C70.9667430179 26.8464008252 73.5375607384 24.6018859017 75.7457612843 22.325148129C77.9566978149 20.0455885335 79.8222628374 17.7122145236 79.5743677108 17.7389040559C79.6638284726 17.7292627456 77.7472303351 20.0452893547 75.6395029654 22.3838865694C73.5375859131 24.7160390154 71.2146321025 27.101611278 71.3550001061 27.1988652621C71.6737649929 27.4197208439 74.4226039903 25.0348771463 76.784914897 22.6111739985C79.1534560347 20.1810787614 81.145047546 17.697579611 80.9214177951 17.6891598646C80.9971533185 17.6920423182 79.1474584177 19.9295777282 77.1104547951 22.1897563021C75.0807397473 24.4418500906 72.8433657691 26.7374599828 72.9589608753 26.8159710609C73.2530374517 27.0157032276 75.8218824838 24.7631303554 78.0461182973 22.4700739196C80.2777343215 20.1694097941 82.167297868 17.8211921421 81.9779781922 17.7915923256C82.0616689162 17.8046826407 80.0859384637 20.1929564581 77.8953158902 22.6123995382C75.7147178763 25.0207720087 73.3003980837 27.479074539 73.4449078265 27.5768523345C73.769373269 27.7963899392 76.5270989304 25.4257378528 78.9081831034 23.0055642197C81.29930392 20.5751896828 83.3098237736 18.0938712576 83.1221887878 18.0410746474C83.1894152676 18.0599895066 80.9829245864 20.69195092 78.4870317643 23.3468387729C75.9957459097 25.9968264547 73.2049779704 28.6550390688 73.2740150135 28.7019574616C73.5110920743 28.8630786655 76.4989465833 26.2553179349 79.0793024886 23.6149467146C81.673009033 20.9609136583 83.8566310301 18.2720476413 83.6498491857 18.2026471044C83.6879535894 18.2154392346 81.6665038943 20.6059404929 79.4319102084 23.0329554804C77.2093298822 25.4469228927 74.7608389788 27.909340374 74.8981024401 28.0007141527C75.2156327603 28.212091432 77.9559506303 25.8721295246 80.3359895503 23.4812873417C82.7275957348 21.0788248951 84.7495700703 18.6295186018 84.595499989 18.5641077783C84.6696444723 18.5955861594 82.6449895363 20.9963449766 80.3953564933 23.4327835994C78.1586360499 25.8552383466 75.6874254964 28.3220868548 75.8297188599 28.4158272274C76.1521461599 28.6282342383 78.9028390212 26.303253138 81.2766738918 23.9148391738C83.6628222045 21.5140376167 85.6581244644 19.0576186208 85.4300901505 18.9452098885C85.4083996417 18.9345149917 83.054326899 21.6509094344 80.4079116124 24.3856213727C77.7614963258 27.120333311 74.818426575 29.8733657268 74.9122103338 29.9359557215C75.1737410769 30.1105002137 78.3127514457 27.4496983612 81.0299539195 24.7464995922C83.7638532517 22.026688945 86.0633412346 19.2713237298 85.8774292043 19.1736850872C85.9094413342 19.190502713 83.7573642248 21.6700876903 81.3682160966 24.191578573C78.9938787393 26.6974376117 76.3745000577 29.25177455 76.50928633 29.3399289263C76.8249305628 29.5463682643 79.6983409523 27.1456034834 82.1918391582 24.686160893C84.6993918875 22.2128566827 86.8109568862 19.6906988599 86.6264284566 19.5850450085C86.6512204867 19.5992386076 84.4322824341 22.1227949174 81.9481431692 24.6791783977C79.4712169551 27.2281380692 76.7282376174 29.7876584542 76.8034293676 29.8366701047C77.0466631494 29.9952139976 79.9529275102 27.5265594831 82.4918086249 25.0165685962C85.0457734041 22.4916654848 87.2190747872 19.9336608728 87.0602144667 19.8389444419C87.1069386827 19.8668048467 84.9423819784 22.3328323527 82.5336791616 24.8365693092C80.131997061 27.3330086883 77.4846090245 29.8452618043 77.6145214778 29.9290775909C77.9118808331 30.1209247562 80.775333124 27.7414155856 83.2800763584 25.31164537C85.7991530517 22.8679698007 87.9438086638 20.3840710826 87.8067939283 20.29761636C87.8700931571 20.3375631909 85.669676624 22.8299532198 83.2165596203 25.359584549C80.7709859594 27.8814362354 78.0725013675 30.4171853238 78.209594648 30.5049401324C78.5139576008 30.6997661643 81.4296987202 28.3058785201 83.9816595944 25.859974516C86.5484805819 23.3998292033 88.7343844124 20.8987838621 88.5970222663 20.8080829872C88.656887668 20.8476123593 86.3472341472 23.4259939303 83.7540743969 26.0371340893C81.1694246973 28.6397044157 78.3037459572 31.2493307896 78.3965106448 31.3085135255C78.6569528345 31.4746720656 81.6911660231 28.9765419783 84.3517909091 26.4355249574C87.0288226411 23.8788383224 89.3157857145 21.2901007915 89.1779241026 21.1966993557C89.2353928743 21.2356422976 86.9050195805 23.8121880439 84.3030507043 26.4287730583C81.7096261164 29.0367663732 78.8458586384 31.659014912 78.9840253675 31.74638705C79.2891536307 31.9393374992 82.3639715727 29.463866479 85.0408421867 26.9250212378C87.7343431979 24.3704030117 90.0081187641 21.7667144922 89.8025412766 21.6243660127C89.7781621113 21.6074788105 87.5866805775 23.9705192315 85.1840398249 26.3540648311C82.7814000793 28.7376114246 80.1633929146 31.1416671723 80.268172976 31.2068235447C80.5405580365 31.3762034752 83.3358302306 29.0961429292 85.7879754914 26.7589104072C88.2542044781 24.4082545971 90.3591283949 22.0125211886 90.1746422587 21.8834349775C90.1678954431 21.8787634148 87.8197669471 24.4117672147 85.2270120058 26.9663655617C82.6342560575 29.5209629148 79.7921821094 32.0971230086 79.9230149491 32.1786616569C80.2210943004 32.3644328088 83.2632626896 29.9312175642 85.9296002152 27.4429245952C88.6120465185 24.9395991338 90.8987971176 22.3942604205 90.7384605536 22.2806231666C90.7681364727 22.3016551383 88.3222013033 24.9145526001 85.5973598229 27.5701898909C82.881598348 30.2169780492 79.888942523 32.8799576451 80.0129359042 32.9569072285C80.3041647201 33.1376440261 83.4884190334 30.6126097134 86.2670245788 28.0262745584C89.063321886 25.4234716479 91.4311994191 22.7743467143 91.2216644711 22.6245644863C91.189904088 22.6018626795 88.851306728 25.0603321933 86.2900835836 27.5447785776C83.7372123927 30.0211242735 80.9527210059 32.5477548691 81.0722947193 32.620874765C81.3725411076 32.804478113 84.360922271 30.43942892 86.9857125029 28.0168658323C89.6259207192 25.5800733634 91.8824526329 23.0989517402 91.7161224799 22.9792583519C91.73691677 22.9942172921 89.2338693024 25.618196297 86.4477627077 28.284599055C83.6709667187 30.9420900617 80.6137750843 33.6152745372 80.7263341235 33.6840975894C81.006554553 33.8554346065 84.2417432966 31.3116275693 87.0741411027 28.711615669C89.9245780813 26.0950445698 92.3500714062 23.4368130708 92.1559604844 23.2965071575C92.1376836628 23.2832975685 89.8205180159 25.6923349912 87.2768668018 28.1177576716C84.7332155877 30.543180352 81.9596570632 32.9849882901 82.0467806073 33.0373256957C82.3020156651 33.1906483718 85.2298869549 30.8606647236 87.8031093614 28.4721811829C90.3915372778 26.069584553 92.605311499 23.6217622264 92.3941422104 23.468839118C92.3564204618 23.4415253854 90.134537978 25.7255597415 87.7179726035 28.0306270633C85.3014072289 30.3356933912 82.685975938 32.6617887088 82.7814967501 32.7185889477C83.0452368237 32.8754192716 85.8227779834 30.6679468586 88.2686859641 28.3997640093C90.7282627921 26.1189053218 92.8371129527 23.7899881815 92.631073258 23.6405528419C92.5969766641 23.6158233781 90.3238626886 25.9472343377 87.8476806383 28.3001275282C85.3714995949 30.6530217127 82.6878882071 33.0273921643 82.7910480257 33.0885717447C83.0626184334 33.2496283419 85.9141177837 30.9988107846 88.4431274008 28.7015539181C90.9860364652 26.3916709109 93.1898817905 24.0462552026 93.0642842783 23.9549818128C93.1191550225 23.9948590672 90.9193074372 26.2841593679 88.5095855492 28.6065969513C86.1139927015 30.9154174265 83.5085940262 33.2564368961 83.6375921349 33.3316629711C83.9457453883 33.5113650672 86.6903369128 31.3914546365 89.1415778989 29.1992135058C91.6118016048 26.9899947235 93.7496519959 24.7380072875 93.6860959853 24.568668109C93.7072326511 24.6249852884 91.4879028804 26.8940517588 89.0390555033 29.2000553811C86.6028186297 31.4941842885 83.9575714485 33.7896311729 84.0438883956 33.8393445517C84.298039935 33.9857234965 86.9739226943 31.9041099406 89.3786710715 29.7414606748C91.8037293779 27.5605475867 93.913423394 25.3326833054 93.8506770012 25.0952397002C93.8489651226 25.0887790284 91.5993250307 27.3467997378 89.1660607839 29.6279118824C86.7397155476 31.9025375124 84.1227888804 34.2197588489 84.2624248041 34.2994209205C84.5802693044 34.4807491181 87.2370787151 32.4810260685 89.6192605044 30.3821833917C92.0212064357 28.2659267194 94.1011248409 26.0859370104 94.035509541 25.8196648935C94.0268494493 25.7845784757 91.743393713 28.0241822947 89.2608948306 30.2830170488C86.7783959482 32.5418527969 84.0931008775 34.8199174923 84.1668053073 34.8617488515C84.4084097835 34.9988751202 87.1139020007 32.9207682182 89.5578262163 30.7819419343C92.0213333161 28.625976979 94.1841247715 26.4392055524 94.1449428912 26.2733104089C94.1625450312 26.3478466829 92.1533846106 28.340787021 89.970843111 30.3612875911C87.7993573262 32.3715534631 85.4747188257 34.3786794486 85.5681743066 34.4304264482C85.8294533029 34.5750977877 88.1772424441 32.7954460938 90.305672468 30.9316009125C92.4498699008 29.0539497724 94.3375795835 27.1198751003 94.2856603194 26.886666714C94.2845526333 26.8816969664 92.2989869347 28.7994827939 90.1758627275 30.7306760063C88.0575106336 32.6575286412 85.7977553531 34.6107865389 85.8784694223 34.6549964193C86.1350588782 34.7955408804 88.4198428308 33.0721695898 90.4951744084 31.261883378C92.585623888 29.4384114319 94.4302063137 27.5551136647 94.3779023805 27.3098705376C94.3741765271 27.2924466027 92.3638288682 29.2104401656 90.2246522747 31.1494816034C88.0904230102 33.084038341 85.822246294 35.0530970541 85.9370881736 35.1153938337C86.2280169073 35.2732091616 88.5225051977 33.5801046276 90.6054959215 31.8049684464C92.7029288589 30.0175231944 94.5541453176 28.1733482739 94.5132908313 27.9674814508C94.5194334545 27.9981845512 92.4526723468 29.9537931395 90.2153295852 31.9420022779C87.9885581774 33.9208175994 85.6096853488 35.9040530144 85.6823022322 35.943041678C85.9232259849 36.0723962555 88.315419243 34.2890043296 90.4960192709 32.4299241422C92.6925206369 30.5572884714 94.6412376451 28.6356292227 94.6008453659 28.4206667675C94.6050747131 28.4430405711 92.5205453125 30.3934130333 90.2857572779 32.3875689716C88.0663650739 34.3679875337 85.7112349945 36.3782911758 85.850573857 36.4518335003C86.1664899763 36.6185715129 88.5411012342 34.9176674571 90.6971025735 33.1265088097C92.8683204996 31.3227101064 94.7829499768 29.4556296194 94.7444669458 29.2268134959C94.7443501353 29.226122701 92.8685601626 30.9554129609 90.9032721696 32.7054737839C88.9419809097 34.4519762676 86.8870891626 36.229924332 87.0416224581 36.3087554618C87.3722023282 36.4773939059 89.4452309256 35.0239544543 91.3314160293 33.4750580794C93.2294493469 31.9164329266 94.9084256435 30.284784291 94.8738154861 30.0483545143C94.8724057037 30.0385144141 93.1814744525 31.5669066046 91.407606711 33.1069329741C89.6366834006 34.6444038993 87.7805035009 36.2011852758 87.849304909 36.2353731632C88.0939998295 36.3569630071 89.9614670512 35.0080323771 91.6777673363 33.5698868266C93.4045151158 32.1229875628 94.9521218484 30.6068448062 94.9167504085 30.3502398423C94.9125210613 30.3196858342 93.1554800795 31.8878449507 91.3112108268 33.4733077343C89.4701236545 35.0560351688 87.538634187 36.6642693357 87.6114917404 36.7001827195C87.8608339079 36.8230885526 89.8017528054 35.4290276449 91.5853943668 33.9458323268C93.3801550833 32.4533912902 94.9881750187 30.8927514018 94.9549776647 30.6362647179C94.9511511125 30.6066152039 93.3465942067 32.029785911 91.6802032388 33.4729568701C90.0164757526 34.9138218664 88.2878640394 36.3816059974 88.3874208571 36.4296684261C88.6636495885 36.5630236504 90.401599096 35.3423323866 91.9975230987 34.0412335889C93.6020064943 32.7331572657 95.0411475916 31.360891683 95.0179697623 31.1562076597C95.0208900258 31.1818217387 93.5305698002 32.5106755825 91.9725880763 33.8571630847C90.4219452767 35.197308195 88.8127511939 36.5470419362 88.8888019044 36.5826958992C89.1420028476 36.7014013016 90.7571693728 35.566582306 92.2446670126 34.3385755737C93.7402578104 33.1038875127 95.0846897274 31.7924466704 95.0576168708 31.5244997486C95.0539917161 31.4881311359 93.3110807816 32.9977138258 91.4808801502 34.5447912731C89.6597867129 36.0841705814 87.759532988 37.653194434 87.8540528546 37.6972065184C88.1273492387 37.8244668444 90.0281870163 36.4983274766 91.7777521236 35.0968497177C93.537228001 33.687433284 95.1196956309 32.2204870524 95.1035697344 32.0264422648C95.1068927929 32.0660113949 93.5261662443 33.4580227787 91.8895529012 34.8744415867C90.2611535544 36.2837516679 88.5869755529 37.7083367651 88.7440484706 37.7775017359C89.0814396036 37.9260673696 90.7484206661 36.8235984487 92.273282574 35.6332643909C93.8058418936 34.4369219082 95.1735040033 33.1678590974 95.1637281695 32.9531918452C95.1646163324 32.9726931347 93.7496912684 34.1902802942 92.2882685607 35.4268578532C90.8331173705 36.6581297096 89.3397147564 37.9011719162 89.4458905023 37.9450627388C89.7348737364 38.0645215549 91.2164190736 37.076653025 92.5808215651 36.008699001C93.9516154056 34.9357414351 95.1863662535 33.7953682495 95.1830915305 33.584802033C95.1834751927 33.6095116179 93.9898033893 34.6293405945 92.7715520301 35.662675357C91.5577646462 36.6922251597 90.3257930835 37.7297205949 90.4324693022 37.7708422742C91.0984676169 38.0275714818 95.177210724 34.6082489858 95.1839786864 34.1349699857C95.1849745969 34.0653438223 91.2601394462 37.384226726 91.5547769145 37.4879055997C92.338809259 37.7637961661 95.1069240095 35.4906236902 95.1358809396 35.1358055809C95.1265159566 35.2499875192 90.9055842127 38.6202625825 91.2527995149 38.7177481568C92.0363525333 38.9377409904 94.9277054245 36.616030978 95.0112007929 36.137255437C95.0069714458 36.1616767766 91.4731918013 38.9531313047 91.6956534467 39.0C92.3700832671 39.1420880647 94.7391842898 37.264429967 94.851180423 36.8476470572C94.8154827192 36.9804874157 92.634753797 38.6947362377 93.1360452224 38.7110409855C93.8632421182 38.4729596261 95.0 37.0 95.0 37.0Z"
         style="opacity:0.5;fill:#000000;fill-opacity:1;stroke:none;stroke-width:1.12998259px;stroke-linecap:butt;stroke-linejoin:miter;stroke-opacity:1" />
    </g>
    <g
       clip-path="url(#clipPath9526)"
       transform="matrix(0.116768,0.000000,0.000000,-0.117347,85.000000,70.000000)"
       inkscape:label="ink_ext_XXXXXX"
       id="g4504">
      <g
         transform="matrix(0.100000,0.000000,0.000000,0.100000,0.000000,0.000000)"
         id="g4506">
        <path
           inkscape:connector-curvature="0"
           id="path4508"
           d="M1370.0 1619.0C1384.51230499 1612.88105834 1370.81710557 1606.20156305 1363.00022643 1604.19838542C1362.54213268 1604.02393482 1362.10411205 1603.8661081 1361.68723122 1603.72580655C1358.33686309 1603.85399069 1360.02707775 1583.863674 1360.87257296 1557.70760002C1360.96760512 1554.59933492 1361.04372781 1551.49137023 1361.10084407 1548.38410656C1358.05196059 1428.12204653 1315.24085001 1313.9399205 1248.70670881 1205.94848759C1219.8185839 1299.7061733 1197.52956901 1395.06596048 1175.70495104 1488.99268901C1168.36226292 1519.40647932 1161.23698509 1549.956265 1154.19839985 1580.64485006C1153.20628361 1584.8203483 1152.21571891 1588.99855041 1151.22622089 1593.17945641C1123.21343481 1593.17945641 1120.99918572 1604.3104464 1113.0 1606.65892005L1113.0 1619.0C1140.99921007 1619.0 1140.98369461 1619.0 1140.98369461 1619.0C1113.02521262 1606.67694594 1113.00678802 1606.6909661 1113.0 1606.69296897L1113.0 1606.67494308C1132.78338983 1608.42285399 1125.61951731 1599.66717621 1125.61951731 1599.66717621C1122.7996807 1596.45055544 1119.9654923 1593.24014358 1117.11734 1590.03594066C1033.2064733 1491.38162078 937.250718036 1397.93438105 837.093058102 1305.79211594C812.959585568 1379.33556329 787.780914545 1453.21709631 759.863872742 1527.45263787C735.800113078 1592.23229578 710.527592959 1657.07103856 683.610066334 1721.91949529C672.233922878 1751.88444084 655.510320375 1778.79640066 593.466380357 1793.6021696C586.747966187 1795.37020944 580.00851888 1797.13043806 573.247951163 1798.88255503C460.445846767 1827.16528401 341.840662348 1853.17384608 217.209547517 1875.0C201.803575462 1778.83044958 186.400386492 1682.6602983 171.0 1586.4896463C239.202120272 1574.64052468 305.919625034 1561.26521063 371.19804244 1546.75346408C412.254200133 1538.03033304 431.162019621 1531.54812115 451.67950917 1494.45203152C454.309068139 1488.36378558 456.922578312 1482.27463833 459.520388787 1476.18458979C520.487837585 1320.39228951 571.825455647 1164.18619481 619.040840888 1008.0848506C637.585511501 946.91536881 655.34777661 885.743113045 673.174586003 824.544128883C673.174586003 824.544128883 679.399114215 803.496293041 698.328587456 797.807230533C718.779602987 791.676884108 735.109607541 806.380926903 735.109607541 806.380926903C845.991052814 889.23195487 940.158429089 972.80510018 1027.0 1060.39840056L1027.0 1060.0C1011.15765703 1060.01201726 1011.17220277 1060.02403452 1011.18577879 1060.03705322C1026.98836341 1059.98197411 1026.99321199 1059.96494966 1027.0 1059.94692377L1027.0 1060.38237755C1025.87483995 1016.65305907 1041.15261557 973.080465751 1057.420568 929.660701968C1085.44157304 854.594186685 1116.54549858 779.3890022 1153.71092372 705.561496792C1153.71092372 705.561496792 1163.50321094 684.890872825 1182.57238144 682.0C1203.1010712 678.867570171 1216.23693854 697.111257772 1216.23693854 697.111257772C1296.72693878 799.100798782 1362.46542816 907.483003043 1401.67443238 1022.0021432C1429.39269215 1105.10892857 1443.84203955 1190.25624522 1446.44970234 1274.52730311C1446.73635033 1280.08548759 1446.96801544 1285.64036736 1447.14527949 1291.19104105C1447.5874699 1321.75464659 1455.12613758 1327.0751897 1470.20696393 1332.40694893C1493.77193087 1341.69218746 1517.65574036 1353.54721756 1541.0 1367.24028806Z"
           style="fill:#0f2b53;fill-opacity:1;fill-rule:nonzero;stroke:none"
           transform="matrix(1.000000,0.000000,0.000000,1.000000,0.000000,0.000000)" />
        <path
           inkscape:connector-curvature="0"
           id="path4510"
           d="M1455.87832283 852.173468431C1384.61386247 753.773953142 1306.94450456 656.984276729 1219.07394366 566.175485081C1161.47965378 655.575911694 1116.21167507 747.976633807 1077.25533111 840.466972585C1060.24391592 880.865682207 1044.30184384 921.359351417 1029.09452875 961.951657682C946.494265414 886.996486441 858.739010314 815.06422425 770.759112086 743.731919113C820.209905408 587.510518616 875.211700079 430.969322651 951.654688389 273.674707469C991.57605906 192.173813282 1038.80928662 111.349861381 1096.5590889 32.689441011C1113.95840593 6.71073736898 1130.92390979 1.23267439658 1139.67812463 -1.9213075575e-11C1158.55041367 -2.66422867002 1170.74983375 2.61196046458 1194.01788779 22.2891290058C1313.79046898 133.111485263 1425.32470276 252.236993585 1515.22200438 379.038269925C1567.35382362 452.001186347 1609.38251426 527.390395292 1642.07460004 603.804347561C1666.15264705 658.225807859 1719.70107482 673.213711445 1719.70107482 673.213711445C1807.40283834 698.799803791 1891.34983709 734.600617216 1969.71773089 779.17341871L1827.80397445 1022.60816212C1734.21159277 969.777592579 1631.45999977 932.873374559 1526.48971765 917.383351943C1504.16411563 914.088858862 1486.95791921 904.339973085 1473.67430811 893.413209137C1466.81459541 872.11506823 1455.87832283 852.173468431 1455.87832283 852.173468431Z"
           style="fill:#0f2b53;fill-opacity:1;fill-rule:nonzero;stroke:none"
           transform="matrix(1.000000,0.000000,0.000000,1.000000,0.000000,0.000000)" />
        <path
           inkscape:connector-curvature="0"
           id="path4512"
           d="M1370.23842149 5.47117906535e-13C1381.16177734 -40.3338370229 1396.05555667 -40.1596680629 1396.09257634 -31.7969311685C1396.12321331 -24.9188818688 1384.5862245 -23.2824958395 1372.73188777 -23.1703610076C1365.34301686 -23.100467447 1357.9826128 -23.0080204438 1350.6509309 -22.8933350829L1350.2110351 -39.952975712C1355.53676147 -40.0360696699 1360.87780634 -40.1075419716 1366.23391438 -40.1672964332ZM1349.51404406 -66.9836580178C1345.43051911 -66.9202098773 1341.35605759 -66.8500598265 1337.29053185 -66.7732465601L1338.83361384 -17.5256345523C1351.2186084 -17.7614153162 1363.68632278 -17.9334671271 1376.23611871 -18.0402676276C1398.33673429 -18.228346755 1408.35170402 -22.9488375572 1408.36408646 -31.8127650118C1408.37685187 -40.5088108313 1396.69663524 -44.4102678398 1383.25913315 -45.4667341054C1393.05900583 -70.6192287332 1403.01053151 -77.9386113143 1413.11728449 -85.2173468431C1408.23464527 -85.2253068816 1403.36413319 -85.2236485403 1398.50587589 -85.2125929312C1389.04288221 -60.1020432843 1379.72286104 -52.7495745818 1370.54287636 -45.3625360953C1363.69666276 -45.2945109326 1356.87508639 -45.2074059997 1350.0782749 -45.1014534644ZM1297.60633875 -41.1479897652C1296.59506347 -61.5078535304 1325.94055621 -78.6999646788 1368.34684398 -79.1380100222C1410.81708642 -79.5767175965 1442.50566899 -63.0039659916 1442.14951423 -42.6285889958C1441.7929765 -22.2370210604 1410.08665003 -6.4902561218 1369.59491749 -6.0674177688C1329.1080358 -5.6446280604 1298.61914587 -20.7566396254 1297.60633875 -41.1479897652ZM1455.87832283 -42.4735208116C1456.4546808 -66.3955991148 1417.95115987 -85.730369116 1368.24306125 -85.217346843C1318.58436474 -84.704835339 1283.27257767 -64.6264164257 1284.59852014 -40.7285886011C1285.92676038 -16.7903613697 1322.66086872 0.4916528863 1369.69857256 -3.76587649953e-13C1416.69198046 -0.4911918674 1455.30158189 -18.537650636 1455.87832283 -42.4735208116Z"
           style="fill:#0f2b53;fill-opacity:1;fill-rule:nonzero;stroke:none"
           transform="matrix(1.000000,0.000000,0.000000,1.000000,0.000000,0.000000)" />
      </g>
    </g>
    <path
       style="stroke-linejoin:miter;stroke-opacity:1;stroke:#000000;stroke-linecap:butt;stroke-width:1.0;fill:none"
       d="M70.5 24.5C79.5296843165 30.2997224238 83.1356773071 41.2100804758 93.8348324609 44.5006025426L95.499966363 40.9700461019"
       id="path4503"
       inkscape:connector-curvature="0"
       sodipodi:nodetypes="ccc"
       transform="matrix(1.000000,0.000000,0.000000,1.000000,0.000000,0.000000)" />
    <circle
       r="1.9420539"
       cy="44.907249"
       cx="95.061043"
       id="path4569"
       style="opacity:1;vector-effect:none;fill:none;fill-opacity:1;stroke:#0d0000;stroke-width:1.00157475;stroke-linecap:round;stroke-linejoin:miter;stroke-miterlimit:4;stroke-dasharray:none;stroke-dashoffset:0;stroke-opacity:1" />
  </g>
</svg>
