<?xml version="1.0" encoding="UTF-8" standalone="no"?>
<!-- Created with Inkscape (http://www.inkscape.org/) -->

<svg
   xmlns:dc="http://purl.org/dc/elements/1.1/"
   xmlns:cc="http://creativecommons.org/ns#"
   xmlns:rdf="http://www.w3.org/1999/02/22-rdf-syntax-ns#"
   xmlns:svg="http://www.w3.org/2000/svg"
   xmlns="http://www.w3.org/2000/svg"
   xmlns:sodipodi="http://sodipodi.sourceforge.net/DTD/sodipodi-0.dtd"
   xmlns:inkscape="http://www.inkscape.org/namespaces/inkscape"
   version="1.1"
   id="svg6791"
   width="160"
   height="120"
   viewBox="0 0 160 120"
   sodipodi:docname="torso-0.svg"
   inkscape:version="0.92.0 r15299"
   inkscape:export-filename="C:\Users\nfleetwood\OneDrive\modding\Ehrieana-SW\exported\ehrieana\torso\torso-0.png"
   inkscape:export-xdpi="96"
   inkscape:export-ydpi="96">
  <sodipodi:namedview
     pagecolor="#ffffff"
     bordercolor="#666666"
     borderopacity="1"
     objecttolerance="10"
     gridtolerance="10"
     guidetolerance="10"
     inkscape:pageopacity="0"
     inkscape:pageshadow="2"
     inkscape:window-width="1680"
     inkscape:window-height="987"
     id="namedview6793"
     showgrid="false"
     inkscape:zoom="20.081832"
     inkscape:cx="71.045473"
     inkscape:cy="78.191951"
     inkscape:window-x="1672"
     inkscape:window-y="-8"
     inkscape:window-maximized="1"
     inkscape:current-layer="layer3" />
  <metadata
     id="metadata6797">
    <rdf:RDF>
      <cc:Work
         rdf:about="">
        <dc:format>image/svg+xml</dc:format>
        <dc:type
           rdf:resource="http://purl.org/dc/dcmitype/StillImage" />
        <dc:title />
      </cc:Work>
    </rdf:RDF>
  </metadata>
  <defs
     id="defs6795">
    <inkscape:path-effect
       tgtlength_rdm="1;1"
       tgtlength="10"
       tgtscale="1"
       tgt_places_rdmness="1;1"
       nbtangents="0"
       tremble_frequency="2"
       tremble_size="1.8;1"
       parallel_offset="0.9;1"
       ends_tolerance="0.1;1"
       strokeoverlap_rdm="0.3;1"
       strokeoverlap="0.3"
       strokelength_rdm="0.3;1"
       strokelength="600"
       nbiter_approxstrokes="5"
       is_visible="true"
       id="path-effect5658"
       effect="sketch" />
    <inkscape:path-effect
       tgtlength_rdm="1;1"
       tgtlength="10"
       tgtscale="15"
       tgt_places_rdmness="1;-97917231"
       nbtangents="11"
       tremble_frequency="2.51"
       tremble_size="1.5;1"
       parallel_offset="0;1"
       ends_tolerance="0.2;1"
       strokeoverlap_rdm="0.1;1"
       strokeoverlap="0.7"
       strokelength_rdm="1;1"
       strokelength="100"
       nbiter_approxstrokes="3"
       is_visible="true"
       id="path-effect5129"
       effect="sketch" />
    <inkscape:path-effect
       tgtlength_rdm="1;1"
       tgtlength="5"
       tgtscale="5"
       tgt_places_rdmness="0.1;1"
       nbtangents="10"
       tremble_frequency="5"
       tremble_size="1;1"
       parallel_offset="0.1;1"
       ends_tolerance="0.1;1"
       strokeoverlap_rdm="1;1"
       strokeoverlap="0.7"
       strokelength_rdm="1;1"
       strokelength="100"
       nbiter_approxstrokes="8"
       is_visible="true"
       id="path-effect4554"
       effect="sketch" />
    <inkscape:path-effect
       back_thickness="0.25"
       front_thickness="1"
       stroke_width_bottom="1"
       stroke_width_top="1"
       fat_output="true"
       bottom_smth_variation="0;1"
       top_smth_variation="0;1"
       scale_tb="1"
       scale_tf="1"
       scale_bb="1"
       scale_bf="1"
       top_tgt_variation="0;1"
       bottom_tgt_variation="0;1"
       top_edge_variation="0;1"
       bottom_edge_variation="2;1"
       bender="76.56184,61.264418 , 5,0"
       do_bend="true"
       growth="0"
       dist_rdm="75;1"
       direction="76.56184,56.264418 , 0.97886787,0.79674004"
       is_visible="true"
       id="path-effect4550"
       effect="rough_hatches" />
    <inkscape:path-effect
       effect="rough_hatches"
       id="path-effect4546"
       is_visible="true"
       direction="80.984707,24.016797 , 0.97886787,1.0173261"
       dist_rdm="75;1"
       growth="0"
       do_bend="true"
       bender="80.984707,30.401101 , 5,0"
       bottom_edge_variation="2;1"
       top_edge_variation="0;1"
       bottom_tgt_variation="0;1"
       top_tgt_variation="0;1"
       scale_bf="1"
       scale_bb="1"
       scale_tf="1"
       scale_tb="1"
       top_smth_variation="0;1"
       bottom_smth_variation="0;1"
       fat_output="true"
       stroke_width_top="1"
       stroke_width_bottom="1"
       front_thickness="1"
       back_thickness="0.25" />
    <inkscape:path-effect
       tgtlength_rdm="1;1"
       tgtlength="5"
       tgtscale="5"
       tgt_places_rdmness="0.1;1"
       nbtangents="10"
       tremble_frequency="5"
       tremble_size="1;1"
       parallel_offset="0.1;1"
       ends_tolerance="0.1;1"
       strokeoverlap_rdm="1;1"
       strokeoverlap="0.7"
       strokelength_rdm="1;1"
       strokelength="100"
       nbiter_approxstrokes="8"
       is_visible="true"
       id="path-effect4530"
       effect="sketch" />
    <inkscape:path-effect
       effect="sketch"
       id="path-effect7353"
       is_visible="true"
       nbiter_approxstrokes="7"
       strokelength="99"
       strokelength_rdm="0.3;1"
       strokeoverlap="0.7"
       strokeoverlap_rdm="0.1;1"
       ends_tolerance="0;1"
       parallel_offset="0.9;1"
       tremble_size="1.4;1"
       tremble_frequency="2.01"
       nbtangents="0"
       tgt_places_rdmness="0.5;-1317933322"
       tgtscale="10"
       tgtlength="10"
       tgtlength_rdm="0.3;1" />
  </defs>
  <g
     inkscape:groupmode="layer"
     id="layer10"
     inkscape:label="shirt lower">
    <path
       style="opacity:0.98999999;fill:#f297e5;fill-opacity:1;stroke:none;stroke-width:1;stroke-linecap:butt;stroke-linejoin:miter;stroke-miterlimit:4;stroke-dasharray:none;stroke-opacity:1"
       d="M 57.65306,82.425935 C 67.380503,70.469254 56.692075,61.355054 57.092348,56.097 c 5.55396,-10.084114 7.084372,-25.320941 7.93235,-31.994927 13.258051,-7.630652 18.239798,-6.828127 30.747065,-0.193906 0.06719,8.912973 -0.09406,19.964816 6.710967,33.827395 -4.668159,8.439582 -10.496821,14.342426 -1.78551,26.195933 -16.581937,7.955885 -25.421793,8.200924 -43.04416,-1.50556 z"
       id="path5127"
       inkscape:connector-curvature="0"
       sodipodi:nodetypes="ccccccc" />
  </g>
  <g
     inkscape:label="shirt stroke new"
     id="layer12"
     inkscape:groupmode="layer">
    <path
       transform="matrix(1.000000,0.000000,0.000000,1.000000,0.000000,0.000000)"
       inkscape:original-d="M58.5 84.5C68.2271572802 72.4384913342 57.1030953572 62.0755061912 57.5 56.7749112405C63.0072225963 46.6092104412 64.5247559505 31.2491079658 65.3655980889 24.5211252383C78.5120806076 16.8287364835 83.1048854696 16.8121039962 95.506901948 23.5C95.5735265341 32.485084535 95.7606564439 42.8001752923 102.50841515 56.7749112405C97.8795394054 65.2827747457 91.6739178178 71.9745599632 100.3119258 83.9239692603C84.0722345636 91.0567303081 76.3930524435 92.3682229461 58.5 84.5Z"
       inkscape:path-effect="#path-effect5658"
       sodipodi:nodetypes="ccccccc"
       inkscape:connector-curvature="0"
       id="path5655"
       d="m 61.908562,49.946693 c 0.873933,-2.833642 1.572963,-5.752771 2.140302,-8.575187 1.201133,-5.975445 1.810693,-11.510136 2.243034,-14.885683 3.299683,-1.933852 6.060923,-3.385062 8.541324,-4.370228 2.480376,-0.985155 4.679993,-1.504292 6.855791,-1.57368 2.175685,-0.06938 4.327938,0.310956 6.712442,1.125133 2.384332,0.814118 5.001888,2.062409 8.106554,3.729178 0.03889,4.486395 0.106464,9.30491 1.007065,14.748983 0.900646,5.444341 2.633926,11.51143 6.002686,18.4971 -2.31795,4.252855 -5.031203,8.051854 -6.08742,12.282651 -0.52809,2.115324 -0.641827,4.338134 -0.08533,6.779518 0.556502,2.441403 1.783132,5.100922 3.935219,8.090034 -4.068968,1.785251 -7.602558,3.206899 -10.894251,4.212317 -3.291725,1.005428 -6.341333,1.594562 -9.443185,1.715152 -3.101873,0.120591 -6.255837,-0.227364 -9.756859,-1.095897 -3.501026,-0.868535 -7.348968,-2.257608 -11.838988,-4.21919 2.418532,-3.011047 3.536382,-5.916701 3.85749,-8.663896 0.321131,-2.74739 -0.154605,-5.335629 -0.921907,-7.713211 -0.767318,-2.377634 -1.82576,-4.543371 -2.669089,-6.446347 -0.421628,-0.951406 -0.789355,-1.836857 -1.039925,-2.650009 -0.250574,-0.813166 -0.383911,-1.553797 -0.336947,-2.215574 2.73082,-5.076001 4.459708,-11.44798 5.607273,-17.392589 0.706617,-3.660416 1.192693,-7.158018 1.556712,-10.090089 m -1.070562,-0.574872 c 0.337479,-2.532181 0.583683,-4.743277 0.789255,-6.418673 3.278688,-1.929818 6.025839,-3.37821 8.494646,-4.360838 2.468978,-0.982696 4.660299,-1.499894 6.828597,-1.567441 2.168316,-0.06755 4.313832,0.314539 6.691726,1.130681 2.377932,0.816154 4.988482,2.066446 8.087589,3.735757 0.03159,4.488876 0.09462,9.311813 0.994913,14.758479 0.90029,5.446649 2.63812,11.519027 6.021042,18.507559 -2.308433,4.254486 -5.01051,8.057123 -6.052949,12.289116 -0.521261,2.116164 -0.627723,4.340244 -0.06201,6.782588 0.565728,2.442397 1.803724,5.103422 3.972027,8.094045 -4.049534,1.787293 -7.563742,3.210475 -10.837505,4.21754 -3.273558,1.007003 -6.305602,1.59756 -9.38908,1.719645 -3.083384,0.122082 -6.217793,-0.224319 -9.695082,-1.090982 -3.477257,-0.866655 -7.297267,-2.253541 -11.751419,-4.212241 2.446945,-3.008731 3.587876,-5.912552 3.930738,-8.657894 0.34284,-2.745168 -0.112257,-5.332447 -0.858853,-7.70781 -0.746601,-2.37538 -1.785162,-4.540202 -2.610505,-6.441084 -0.412709,-0.950527 -0.772232,-1.835331 -1.015407,-2.64773 -0.243166,-0.812367 -0.370069,-1.55259 -0.317291,-2.213709 2.780699,-5.069731 4.57029,-11.438557 5.774704,-17.375276 1.20439,-5.936603 1.824787,-11.44754 2.263926,-14.802133 1.851507,-1.071242 3.534533,-1.992725 5.093869,-2.766909 m -8.433496,15.698362 c 0.805792,-4.833658 1.256789,-9.171962 1.59626,-11.991911 3.270223,-1.931258 6.010459,-3.381468 8.473845,-4.36617 2.463489,-0.984744 4.650189,-1.503996 6.81427,-1.573839 2.164078,-0.06984 4.305368,0.309709 6.678584,1.122479 2.37335,0.812815 4.978368,2.058763 8.071424,3.722076 0.02372,4.481154 0.0787,9.294548 0.970266,14.728346 0.891511,5.433445 2.619966,11.489823 5.991822,18.453685 -2.315606,4.239669 -5.023434,8.025077 -6.071958,12.241518 -0.524203,2.107984 -0.633571,4.323633 -0.07117,6.755913 0.562391,2.432226 1.796625,5.081391 3.96008,8.055681 -4.055006,1.767517 -7.574856,3.172986 -10.852781,4.163057 -3.277871,0.990054 -6.31436,1.56488 -9.401762,1.670471 -3.087435,0.105592 -6.226202,-0.258051 -9.708345,-1.145352 -3.48207,-0.887283 -7.307963,-2.298336 -11.769052,-4.287644 2.441366,-3.033059 3.577809,-5.956424 3.916462,-8.720329 0.338622,-2.763654 -0.120438,-5.368469 -0.87106,-7.761483 -0.750563,-2.392825 -1.793097,-4.575021 -2.621906,-6.491085 -0.414447,-0.958128 -0.775595,-1.850013 -1.020218,-2.668725 -0.244626,-0.81872 -0.372796,-1.564466 -0.321171,-2.230581 2.771008,-5.113861 4.54799,-11.532706 5.740513,-17.520896 0.161127,-0.809091 0.311582,-1.610313 0.452371,-2.399375 m 0.265358,39.122135 c 0.299024,-2.662819 -0.149563,-5.175424 -0.875953,-7.48693 -0.745109,-2.371076 -1.782927,-4.531885 -2.608243,-6.42992 -0.412668,-0.949042 -0.772283,-1.83255 -1.015617,-2.643851 -0.243327,-0.811271 -0.37045,-1.550568 -0.317912,-2.210906 2.779149,-5.063846 4.561136,-11.425383 5.75547,-17.360705 1.194515,-5.936226 1.800676,-11.442774 2.231092,-14.799971 3.297798,-1.914325 6.057809,-3.350892 8.537808,-4.32418 2.479876,-0.973239 4.679339,-1.483055 6.855255,-1.543701 2.175934,-0.06065 4.32823,0.327891 6.713589,1.151186 2.385323,0.823282 5.003496,2.081246 8.110535,3.759046 0.0416,4.499934 0.113124,9.332457 1.019908,14.789105 0.906795,5.456713 2.648853,11.537515 6.031574,18.534559 -2.30877,4.259656 -5.012965,8.065657 -6.058882,12.300484 -0.523003,2.117593 -0.631495,4.34273 -0.06858,6.786271 0.562924,2.443568 1.797277,5.105597 3.960008,8.097189 -4.056036,1.788282 -7.577706,3.212036 -10.857951,4.219127 -3.280286,1.007103 -6.319089,1.59752 -9.409576,1.719287 -3.090465,0.121767 -6.232469,-0.22512 -9.718961,-1.092505 -3.486507,-0.867388 -7.317351,-2.25524 -11.785405,-4.215288 2.435957,-3.009802 3.568024,-5.914472 3.902591,-8.660613 0.334563,-2.74611 -0.12834,-5.3338 -0.882691,-7.709989 -0.754356,-2.376203 -1.800295,-4.541316 -2.632233,-6.442833 -0.415982,-0.950789 -0.7785,-1.835757 -1.024363,-2.648357 -0.245859,-0.812583 -0.375091,-1.552879 -0.324409,-2.214162 2.762605,-5.07115 4.531126,-11.44013 5.716628,-17.376901 1.185247,-5.935492 1.789102,-11.447013 2.218058,-14.799538 1.770662,-1.027317 3.386896,-1.916668 4.888075,-2.670241 M 56.708835,55.183827 c 2.490652,-4.956383 4.109196,-11.000323 5.209634,-16.654191 1.160864,-5.964324 1.747108,-11.506817 2.165606,-14.875571 3.284784,-1.932197 6.037699,-3.382947 8.511738,-4.367765 2.474271,-0.98491 4.670296,-1.50413 6.843486,-1.573806 2.173218,-0.06968 4.323762,0.310169 6.707987,1.123465 2.384324,0.813329 5.002303,2.060104 8.1115,3.724745 0.04437,4.482284 0.122215,9.299297 1.041139,14.736121 0.918896,5.436657 2.679735,11.498847 6.094045,18.47 -2.288162,4.243056 -4.971171,8.036668 -5.993595,12.256915 -0.511307,2.110517 -0.607737,4.329257 -0.03008,6.764722 0.577678,2.435571 1.829692,5.088748 4.016666,8.068472 -4.026911,1.77418 -7.521178,3.18551 -10.776165,4.181335 -3.254742,0.99575 -6.269747,1.575859 -9.335372,1.686989 -3.065542,0.111127 -6.181684,-0.246732 -9.637192,-1.127132 -3.455404,-0.880374 -7.250569,-2.283386 -11.673285,-4.262531 2.471724,-3.024917 3.63246,-5.94199 3.993834,-8.699716 0.361302,-2.757168 -0.07637,-5.357063 -0.805618,-7.743914 -0.7292,-2.386678 -1.751279,-4.564157 -2.561664,-6.474852 -0.405305,-0.955611 -0.758045,-1.845331 -0.9951,-2.66195 -0.237041,-0.816573 -0.358627,-1.560742 -0.301054,-2.225153 1.176876,-2.126213 2.182474,-4.479058 3.045733,-6.932399"
       style="opacity:0.98999999;stroke-linejoin:miter;stroke-opacity:1;fill-opacity:1;stroke:#090101;stroke-linecap:round;stroke-miterlimit:4;stroke-dasharray:none;stroke-width:1.0;fill:none" />
  </g>
  <g
     style="display:none"
     inkscape:groupmode="layer"
     id="layer11"
     inkscape:label="shirt stroke">
    <path
       inkscape:connector-curvature="0"
       style="fill:none;fill-opacity:1;stroke:#090101;stroke-width:1;stroke-linecap:butt;stroke-linejoin:miter;stroke-miterlimit:4;stroke-dasharray:none;stroke-opacity:1"
       d="m 55.604096,81.262703 c 3.30767,-3.806192 5.120497,-6.457984 6.00356,-8.406977 0.885632,-1.954665 0.852135,-3.234921 0.339001,-4.283262 -0.513728,-1.049557 -1.510097,-1.870551 -2.562827,-2.904479 -1.053635,-1.034816 -2.160501,-2.279954 -2.902237,-4.181608 0.407223,-1.888638 1.225346,-3.804132 2.175229,-5.92376 0.950567,-2.121154 2.032512,-4.445509 2.973763,-7.162181 1.064537,-3.072501 1.944105,-6.631358 2.260356,-10.976111 0.243271,-3.34215 0.155566,-7.146458 -0.448012,-11.531363 3.269284,-1.929287 6.154851,-3.395269 8.833502,-4.406337 2.679497,-1.011388 5.14955,-1.566791 7.595577,-1.682015 0.331966,-0.01564 0.663431,-0.02317 0.994853,-0.02262 M 57.726853,56.11124 c 0.329526,-0.744869 0.689405,-1.508156 1.065919,-2.29934 1.027192,-2.15848 2.178909,-4.525813 3.164622,-7.274169 1.969522,-5.491404 3.29498,-12.541744 1.586653,-22.579677 3.148267,-1.918475 5.901305,-3.367812 8.466431,-4.367325 1.929647,-0.751895 3.746638,-1.246475 5.528957,-1.490581 0.584704,-0.08008 1.168113,-0.132752 1.75249,-0.158292 2.366666,-0.103434 4.743746,0.237801 7.313167,1.004285 2.571473,0.767096 5.329444,1.957642 8.482945,3.552162 -0.162171,0.987096 -0.293582,1.948682 -0.397222,2.884275 M 63.35828,31.691004 c 0.05664,-2.18227 -0.0416,-4.545982 -0.334898,-7.118981 3.373309,-1.860026 6.299874,-3.263249 9.031485,-4.222715 2.724812,-0.957077 5.23015,-1.462336 7.714399,-1.522685 2.483008,-0.06032 4.942789,0.324114 7.569212,1.146491 2.626081,0.822269 5.422462,2.083463 8.585816,3.782974 -0.398323,2.562341 -0.611077,4.965661 -0.673131,7.22575 -0.206101,7.506487 0.945914,13.097137 2.424948,17.576788 0.784065,2.374749 1.648427,4.39795 2.415979,6.156876 M 83.199542,18.181005 c 1.945165,0.122825 3.901902,0.533141 5.962633,1.230055 2.547764,0.861621 5.265582,2.16565 8.306802,3.907394 -2.088871,11.144219 -0.895941,19.400903 0.785782,25.579169 0.84296,3.096841 1.820751,5.71229 2.593601,7.920303 0.0814,0.232332 0.16047,0.46038 0.23703,0.684244 0.65385,1.91157 1.16823,3.455161 1.26331,4.781657 -0.64181,1.635043 -1.80302,2.81071 -2.964356,3.883294 -1.160042,1.071392 -2.315651,2.035384 -2.941621,3.243788 -0.312707,0.603668 -0.493528,1.26944 -0.472453,2.034653 0.02106,0.764484 0.244076,1.631403 0.743322,2.628195 0.997008,1.990624 3.106573,4.522004 6.969628,7.755531 -4.427657,2.306194 -8.718395,3.714974 -13.008665,4.316391 m 2.764452,-50.4929 c 0.277016,4.27963 1.170494,7.87978 2.230187,10.908462 1.018063,2.909699 2.200769,5.323568 3.171871,7.350302 0.974389,2.033599 1.737785,3.68199 1.943015,5.093811 -0.52607,1.552203 -1.600776,2.682236 -2.681718,3.722805 -1.080499,1.040143 -2.179261,2.001402 -2.756635,3.215341 -0.288897,0.60741 -0.44823,1.28023 -0.405386,2.057709 0.04286,0.777716 0.288068,1.661255 0.810155,2.6907 1.018721,1.820636 3.094463,4.389648 6.781794,7.808091 1e-5,0 1e-5,0 1e-5,0 0.0904,0.271891 0.18169,0.356277 0.27384,0.441229 -7.535747,4.483121 -15.217143,6.735124 -23.125481,6.70424 -3.117196,-0.01218 -6.27774,-0.376504 -9.497645,-1.089562 M 99.65619,63.882712 c -0.300775,0.313187 -0.614558,0.612464 -0.929403,0.905402 -1.117497,1.039739 -2.251232,2.002165 -2.86513,3.224101 -0.306973,0.611017 -0.484304,1.287724 -0.462552,2.071332 0.02176,0.783732 0.242642,1.675141 0.73341,2.717021 0.978484,2.077275 3.044138,4.777707 6.775985,8.423465 -7.717017,4.658981 -14.936343,6.911832 -22.18705,6.771673 -0.915885,-0.0177 -1.831261,-0.07375 -2.74655,-0.168105 -6.300178,-0.649498 -13.321595,-3.18878 -21.223058,-7.608855 0.772002,-0.988345 1.456082,-1.907209 2.05594,-2.75384 m -3.450975,1.947583 c 3.075159,-3.607302 4.867534,-6.159064 5.757794,-8.070515 0.889299,-1.909388 0.870823,-3.164115 0.373054,-4.195003 -0.497317,-1.02995 -1.470695,-1.831612 -2.487415,-2.845319 -1.015893,-1.012884 -2.078932,-2.241489 -2.747065,-4.11764 0.477223,-1.866565 1.380656,-3.756199 2.441123,-5.844706 1.06189,-2.091308 2.274868,-4.370334 3.377687,-7.024939 0.766507,-2.997502 1.861974,-6.454156 2.428015,-10.595243 0.43526,-3.184316 0.489134,-6.852147 -0.04453,-11.127387 3.822752,-1.839925 6.675376,-3.233313 9.357367,-4.195824 1.032644,-0.370594 2.031389,-0.673866 3.009133,-0.910011 M 57.888738,57.628853 c 0.427745,-0.993649 0.926661,-2.020234 1.458668,-3.10908 1.027429,-2.10281 2.177359,-4.435818 3.158485,-7.183027 1.960426,-5.489306 3.26507,-12.667582 1.517683,-23.084097 3.139784,-2.064181 5.868304,-3.638683 8.429364,-4.754559 1.595193,-0.69504 3.112859,-1.206148 4.599184,-1.539407 0.89187,-0.199973 1.778487,-0.331253 2.666402,-0.39593 2.365906,-0.172339 4.749429,0.126934 7.313765,0.871674 2.568322,0.745897 5.322948,1.939353 8.463032,3.567683 -0.0269,0.161714 -0.053,0.322795 -0.07831,0.483237 m -33.655073,8.095869 c 0.120494,-2.562147 0.03853,-5.348869 -0.309926,-8.393272 3.365849,-1.819649 6.330667,-3.146414 9.074861,-4.003176 2.743924,-0.856675 5.284911,-1.249045 7.797107,-1.180297 2.513629,0.06878 5.013077,0.599318 7.684703,1.605304 2.672397,1.006276 5.526907,2.491785 8.764871,4.485022 C 94.711343,25.307316 94.554386,27.453464 94.5,29.5 c 0,0 0,1e-6 0,1e-6 -0.451095,8.867864 0.801629,14.671783 2.458403,19.234784 1.004448,2.766398 2.131553,4.976296 3.049927,6.822592 0.91851,1.846554 1.62744,3.328901 1.78643,4.603468 -0.58274,1.397932 -1.70506,2.362643 -2.8453,3.24787 -1.141255,0.886015 -2.284251,1.684124 -2.915322,2.764763 -0.02808,0.04807 -0.0551,0.09666 -0.08103,0.1458 M 81.91437,19.232806 c 1.577014,0.17536 3.175498,0.527554 4.848264,1.053771 2.604923,0.819454 5.380331,2.057698 8.53381,3.699192 -1.751373,10.814365 -0.07536,18.600886 2.079077,24.318188 1.081956,2.871218 2.295511,5.248676 3.286589,7.254111 0.3068,0.822567 0.58727,1.397244 0.83789,1.941932 0,0 0,0 0,0 0.56945,1.036724 0.97621,2.131578 1.10668,3.108529 -0.5467,1.546252 -1.65851,2.674826 -2.792664,3.720277 -1.135428,1.046627 -2.296005,2.012638 -2.945542,3.239954 -0.324806,0.613729 -0.521339,1.291768 -0.524919,2.078128 -0.0036,0.786546 0.185814,1.679522 0.630228,2.724712 0.889224,2.09132 2.796076,4.782238 6.181617,8.436763 -3.984755,2.21871 -7.906001,3.885551 -11.795837,4.996659 m 2.734162,-49.039574 c 0.351862,3.983413 1.195944,7.362812 2.181063,10.245266 1.01108,2.958415 2.179072,5.416603 3.135699,7.484894 0.959153,2.073754 1.708373,3.760929 1.900783,5.202223 -0.54055,1.587531 -1.630506,2.754378 -2.727605,3.834458 -1.096496,1.079489 -2.21199,2.082353 -2.804728,3.336522 -0.296833,0.628068 -0.464038,1.32182 -0.430445,2.12445 0.03361,0.803009 0.268142,1.716046 0.776383,2.78595 1.020075,2.14737 3.124275,4.897936 6.924775,8.705531 -0.12785,0.0829 -0.25561,0.165156 -0.38325,0.246751 -7.437574,4.754138 -15.03492,6.879981 -22.693707,6.706023 -2.544652,-0.0578 -5.113614,-0.367609 -7.719575,-0.920262 M 100.58825,62.013086 c -0.20931,0.208002 -0.42239,0.410854 -0.635901,0.610668 -1.162404,1.087819 -2.337411,2.084994 -2.992433,3.335005 -0.32762,0.625214 -0.525358,1.313829 -0.527781,2.110045 -0.0024,0.796068 0.190451,1.699885 0.643939,2.753872 0.908097,2.110585 2.856093,4.814623 6.368836,8.453818 -8.12127,4.621756 -15.902635,6.771941 -23.9425,6.639514 -1.175066,-0.01935 -2.356099,-0.08734 -3.545678,-0.203259 -6.970802,-0.679261 -13.923012,-3.043095 -21.312204,-6.959043 3.212819,-3.614298 5.056,-6.082402 5.993214,-7.964373 0.928401,-1.864276 0.926977,-3.089859 0.445267,-4.088127 C 60.7421,65.994727 60.16162,65.40507 59.495701,64.779229 m -6.195865,15.453577 c 3.141412,-3.705248 4.967051,-6.32916 5.876315,-8.2845 0.909731,-1.956343 0.900722,-3.238448 0.413313,-4.297097 -0.486456,-1.056581 -1.450961,-1.89194 -2.454255,-2.94418 -1.002286,-1.051182 -2.05368,-2.328565 -2.702453,-4.267027 0.494912,-1.928165 1.418495,-3.890013 2.505353,-6.071837 1.088608,-2.185336 2.333921,-4.577937 3.483154,-7.385186 1.299661,-3.174704 2.46123,-6.843129 3.144501,-11.319709 0.525036,-3.439878 0.627774,-7.300199 0.07157,-11.66583 3.308793,-1.911718 6.1253,-3.313137 8.72008,-4.25161 2.589734,-0.936649 4.953034,-1.408541 7.278831,-1.431216 1.287347,-0.01255 2.56318,0.112673 3.856585,0.373988 M 57.370076,55.379989 c 0.255239,-0.595572 0.529758,-1.203622 0.816412,-1.828464 0.972177,-2.119136 2.084477,-4.43263 3.058198,-7.108421 1.936592,-5.321761 3.357064,-12.195819 1.895365,-21.606888 3.235961,-1.674102 6.088302,-2.880583 8.716991,-3.630743 2.145611,-0.612302 4.156921,-0.924977 6.120987,-0.934568 0.444659,-0.0022 0.887987,0.008 1.331474,0.03067 2.414202,0.123648 4.795026,0.618267 7.380434,1.495454 2.5783,0.874778 5.325962,2.118647 8.445295,3.698795 -0.306865,1.751971 -0.520364,3.405501 -0.655186,4.972535 M 62.934624,28.820034 c -0.0653,-2.051488 -0.238624,-4.229006 -0.543191,-6.547467 3.280897,-1.940097 6.23457,-3.371537 8.958315,-4.31851 2.73194,-0.949824 5.274762,-1.428668 7.791867,-1.454057 2.520193,-0.02541 5.025667,0.402955 7.706306,1.27668 2.683243,0.874574 5.536701,2.193235 8.765546,3.948793 -0.396844,2.918494 -0.574437,5.626395 -0.583571,8.131846 -0.02611,7.161691 1.076808,12.599532 2.47779,17.067001 0.938969,2.994195 1.9852,5.463122 2.832844,7.569492 0.57051,1.417725 1.04852,2.665481 1.32911,3.773518 M 81.776558,17.24949 c 1.506844,0.153958 3.032183,0.473683 4.611805,0.957784 2.648024,0.81153 5.466005,2.090489 8.621024,3.845522 -1.74451,11.273895 -0.223733,19.691325 1.885083,26.09841 1.052165,3.196724 2.242239,5.872779 3.22489,8.150129 0.76877,0.703725 1.09706,1.475424 1.38064,2.198665 0,0 0,0 0,0 0.0856,1.392451 0.43874,2.491131 0.56211,3.469437 -0.53766,1.695064 -1.64002,2.937957 -2.753663,4.063171 -1.115069,1.12666 -2.255297,2.146724 -2.87734,3.401709 -0.311558,0.628576 -0.494302,1.317768 -0.480362,2.111053 0.01393,0.79292 0.224587,1.690213 0.699267,2.728539 0.949642,2.077271 2.952727,4.715257 6.550238,8.167327 -4.126643,2.224161 -8.18372,3.783135 -12.149625,4.750842 m 4.517952,-50.826327 c 0.469543,3.838479 1.30149,7.099015 2.241802,9.922556 1.000158,3.003244 2.115759,5.490325 3.022581,7.60348 0.905,2.108924 1.59963,3.839637 1.74267,5.307339 -0.59789,1.623749 -1.74628,2.824825 -2.910237,3.945755 -1.163697,1.12068 -2.344449,2.16167 -3.00423,3.457778 -0.330367,0.648987 -0.53107,1.362992 -0.537237,2.190904 -0.0062,0.828147 0.182152,1.77037 0.629501,2.880127 0.899229,2.23076 2.820005,5.093292 6.319213,9.144296 -0.26205,0.172766 -0.52366,0.343234 -0.78481,0.511408 -7.786928,5.014485 -15.281671,6.976327 -22.702307,6.559677 C 72.561895,87.494714 65.60089,84.995074 57.949805,80.754839 M 98.460067,65.45723 c -0.825146,0.768407 -1.576848,1.538535 -2.053275,2.442386 -0.32834,0.622909 -0.526057,1.309552 -0.527143,2.103143 -0.0011,0.793291 0.194406,1.69469 0.653831,2.744577 0.917142,2.095878 2.895719,4.802862 6.49396,8.41038 -7.951462,4.572976 -15.46789,6.658661 -23.183,6.405984 -1.811731,-0.05934 -3.634105,-0.247648 -5.476191,-0.562995 -6.000606,-1.027246 -12.247298,-3.414836 -18.940692,-7.138765 3.143059,-3.737334 4.944876,-6.365005 5.832591,-8.314673 0.888776,-1.952001 0.865069,-3.2309 0.36232,-4.283627 -0.50246,-1.052125 -1.484016,-1.878908 -2.511992,-2.921784 -1.027316,-1.042209 -2.105364,-2.304287 -2.794394,-4.225166 0.27191,-1.136644 0.693763,-2.284328 1.208648,-3.481476 m -0.517183,23.20336 c 3.026179,-3.680344 4.771394,-6.282885 5.625673,-8.22949 0.853353,-1.944495 0.812032,-3.221403 0.29082,-4.273095 -0.521239,-1.051747 -1.521181,-1.8769 -2.573928,-2.921861 -1.052562,-1.044775 -2.155767,-2.307227 -2.884321,-4.234331 0.419522,-1.91469 1.255426,-3.861396 2.22809,-6.0232 0.97112,-2.158369 2.083194,-4.540779 3.043848,-7.308605 1.084375,-3.124288 1.987533,-6.772969 2.265207,-11.164462 0.213881,-3.382566 0.09483,-7.206949 -0.550359,-11.555282 3.227553,-1.896033 6.088397,-3.308938 8.725465,-4.254092 2.641197,-0.946633 5.078681,-1.432261 7.481882,-1.469836 0.887812,-0.01388 1.771393,0.03337 2.659184,0.141291 M 56.554485,56.010136 c 0.280724,-0.644276 0.585305,-1.30527 0.904218,-1.98972 0.978625,-2.100317 2.094147,-4.425235 3.060475,-7.151418 1.923754,-5.427258 3.296952,-12.563294 1.701524,-22.745458 3.192871,-1.978934 5.976277,-3.477005 8.566629,-4.514903 2.038986,-0.816979 3.948093,-1.344235 5.81687,-1.590365 0.501286,-0.06602 1.001942,-0.110935 1.503258,-0.134968 2.368601,-0.113556 4.755588,0.238222 7.328948,1.04063 2.574898,0.802887 5.347229,2.059919 8.510114,3.76995 -1.400427,9.017856 -0.421889,16.2882 1.119726,21.837079 M 63.455983,28.712358 c -0.08722,-1.287356 -0.221556,-2.635317 -0.408834,-4.049143 3.306329,-1.835404 6.231288,-3.234972 8.969381,-4.19413 2.735325,-0.958191 5.26702,-1.470543 7.785458,-1.541867 2.517668,-0.0713 5.019287,0.298201 7.698105,1.100004 2.675907,0.800933 5.538768,2.036665 8.767064,3.699509 -0.518151,3.753415 -0.648025,7.166711 -0.506429,10.273497 0.2718,5.963576 1.381433,10.596672 2.719076,14.415379 1.013731,2.894004 2.135366,5.252108 3.053136,7.252968 0.91459,1.993927 1.61818,3.615706 1.77022,4.995428 -0.58875,1.521561 -1.72353,2.613041 -2.87421,3.620091 -1.151144,1.007468 -2.312095,1.926497 -2.955934,3.109531 -0.321322,0.590419 -0.512675,1.245241 -0.506945,2.002893 0.0057,0.757306 0.208495,1.617919 0.676714,2.616919 0.230128,0.491004 0.524584,1.015846 0.891639,1.578431 M 88.760803,20.264906 c 0.123227,0.03698 0.246826,0.07496 0.370821,0.113962 2.553774,0.8031 5.271876,2.031755 8.342191,3.669462 -2.009207,10.80631 -0.636812,18.631655 1.213757,24.33576 0.930279,2.867434 1.994588,5.240463 2.848488,7.233849 0.85432,1.994404 1.50521,3.624457 1.61071,5.008528 -0.13882,0.329875 -0.30317,0.639954 -0.4879,0.933663 -0.67103,1.06691 -1.59908,1.921323 -2.5358,2.733942 -1.194812,1.036529 -2.391802,1.995851 -3.068133,3.224734 -0.337771,0.613723 -0.54483,1.293433 -0.557096,2.082503 -0.01227,0.789122 0.170192,1.687626 0.61196,2.741678 0.887925,2.118577 2.802253,4.828415 6.288029,8.607352 -7.910449,4.707133 -15.416379,7.227473 -23.356145,7.55225 m 16.082358,-47.09807 c 0.374659,1.778291 0.83759,3.411066 1.339405,4.912448 0.974572,2.915827 2.098208,5.34305 3.015012,7.392291 0.91776,2.051366 1.63027,3.72822 1.79065,5.15684 -0.57827,1.576312 -1.7037,2.729014 -2.842354,3.798568 -1.138349,1.069267 -2.292159,2.057108 -2.926189,3.301107 -0.317181,0.622325 -0.504721,1.309422 -0.495347,2.104848 0.0094,0.795535 0.215683,1.699614 0.686364,2.756944 0.94222,2.116583 2.939922,4.840218 6.531796,8.541072 -1.69588,1.006643 -3.375796,1.902838 -5.046311,2.689322 -6.186046,2.91241 -12.153148,4.249872 -18.150961,4.100034 -7.453931,-0.186215 -14.969341,-2.673471 -22.90434,-7.312584 m 39.099999,-9.731306 c -0.0299,0.223202 -0.04252,0.455716 -0.03575,0.698887 0.0215,0.772319 0.238342,1.648831 0.715284,2.677554 0.962233,2.075453 2.939139,4.690651 6.405589,8.355873 -8.257198,4.659204 -16.367766,6.999481 -24.789377,6.980417 C 74.969254,87.818755 71.358,87.393288 67.64304,86.549141 62.535615,85.388586 57.535046,83.400683 52.5,80.602156 c 3.205103,-3.763772 5.08285,-6.318552 6.069529,-8.311161 0.969324,-1.957564 0.995641,-3.234934 0.542467,-4.291662 -0.450885,-1.051392 -1.380553,-1.885853 -2.340797,-2.927372 -0.961602,-1.042992 -1.96813,-2.306811 -2.574967,-4.224009 0.536524,-1.910879 1.490427,-3.835712 2.587672,-5.978016 0.479655,-0.936496 0.987788,-1.916865 1.494169,-2.946349 m -5.036215,25.664206 c 3.027632,-3.883092 4.756228,-6.453082 5.635065,-8.447718 0.863466,-1.95975 0.832211,-3.232315 0.31951,-4.282688 -0.511651,-1.048222 -1.500709,-1.866697 -2.53723,-2.89645 -1.036236,-1.029467 -2.120548,-2.270879 -2.820109,-4.162005 0.44746,-1.880837 1.316314,-3.782047 2.332324,-5.887998 1.014201,-2.1022 2.17899,-4.416148 3.206126,-7.107081 1.159979,-3.038957 2.155654,-6.586774 2.558436,-10.890728 0.311064,-3.323901 0.305344,-7.074658 -0.171088,-11.38519 3.377852,-1.857172 6.386221,-3.242837 9.183283,-4.166322 2.798699,-0.924023 5.39779,-1.389841 7.979316,-1.404613 2.582955,-0.01478 5.155686,0.421487 7.920518,1.307876 0.817791,0.262179 1.652725,0.563837 2.510215,0.905063 M 55.631952,54.216122 c 0.178106,-0.377583 0.362364,-0.760301 0.551163,-1.149066 1.055083,-2.172581 2.246249,-4.523266 3.311249,-7.242203 2.146711,-5.480539 3.696857,-12.2452 2.747084,-21.828294 3.430246,-1.713417 6.493739,-2.966255 9.334637,-3.767253 2.61657,-0.737747 5.066696,-1.099266 7.491478,-1.083457 0.212436,0.0014 0.424292,0.0053 0.635711,0.01182 2.631091,0.08087 5.18243,0.559094 7.883043,1.441453 2.695479,0.880683 5.520803,2.15849 8.658705,3.812458 -0.211941,1.280747 -0.383405,2.511605 -0.517122,3.701129 M 62.801664,29.54065 c -0.04345,-1.885056 -0.18659,-3.888943 -0.448873,-6.02572 3.331161,-1.859846 6.295491,-3.241767 9.047929,-4.158049 2.754144,-0.916849 5.310981,-1.37299 7.846444,-1.375595 2.53669,-0.0026 5.061247,0.448389 7.765334,1.354494 2.703635,0.905953 5.595706,2.269907 8.870811,4.100581 -0.37241,3.123484 -0.497248,6.029098 -0.433867,8.728658 0.170253,7.251435 1.277814,12.51929 2.678492,16.878297 0.949573,2.955134 1.993736,5.356058 2.840316,7.401146 0.84166,2.033209 1.4811,3.698748 1.5785,5.10812 -0.65274,1.560644 -1.84834,2.690027 -3.066734,3.744662 -0.642084,0.555786 -1.286966,1.087991 -1.857403,1.649272 M 84.81461,18.999012 c 0.966948,0.19632 1.946084,0.457477 2.948325,0.782814 2.563627,0.83218 5.278659,2.084672 8.310105,3.737484 -2.133729,10.883922 -1.081302,18.61516 0.513715,24.384857 0.795532,2.8777 1.728286,5.267716 2.465796,7.279253 0.479186,1.306969 0.879197,2.462399 1.107589,3.493403 0.12351,0.557583 0.2028,1.080774 0.22001,1.574437 -0.710885,1.557359 -1.918492,2.683134 -3.130692,3.745323 -1.207804,1.058338 -2.399733,2.037063 -3.056789,3.279824 -0.32815,0.620668 -0.523132,1.308099 -0.516873,2.103856 0.0063,0.795539 0.213689,1.703032 0.695972,2.764677 0.859353,1.891681 2.592271,4.279441 5.675092,7.448382 M 96.587975,38.289724 c 0.341254,4.099601 1.192765,7.564586 2.186434,10.511911 0.985398,2.922804 2.114121,5.346796 3.033961,7.390719 0.92063,2.045676 1.63375,3.714263 1.79416,5.135431 -0.57836,1.567713 -1.70449,2.709993 -2.84478,3.767985 -1.140228,1.057926 -2.295617,2.032373 -2.932448,3.264066 -0.318454,0.615923 -0.507339,1.296343 -0.499681,2.083924 0.0077,0.787623 0.211871,1.682373 0.679572,2.727139 0.936154,2.091213 2.924477,4.77705 6.496657,8.40765 0,0 -0.042,0.02416 -0.042,0.02416 -7.992109,4.587582 -15.712154,6.66146 -23.620269,6.30173 C 77.8049,87.766395 74.733633,87.27 71.594941,86.414888 M 100.05962,62.70512 c -0.234015,0.229123 -0.474183,0.451311 -0.715219,0.669989 -1.120763,1.016804 -2.260704,1.95826 -2.885549,3.164364 -0.312289,0.602793 -0.495555,1.27129 -0.481991,2.046511 0.01356,0.775446 0.223991,1.657019 0.698712,2.688202 0.948492,2.060304 2.956003,4.723084 6.550497,8.337017 -7.978249,4.590892 -15.56999,6.782602 -23.283429,6.493671 -1.077392,-0.04036 -2.156917,-0.129237 -3.239325,-0.267002 C 70.047024,84.990679 63.0814,82.501163 55.516761,78.39672 c 3.120532,-3.691394 4.901003,-6.272521 5.776699,-8.195683 0.875615,-1.922984 0.8448,-3.185693 0.334688,-4.221769 -0.510351,-1.036562 -1.498499,-1.843418 -2.536333,-2.865643 -1.036785,-1.021193 -2.124183,-2.258697 -2.825223,-4.151286 0.186724,-0.788661 0.447767,-1.582621 0.763237,-2.395165 m -2.797404,24.727852 c 3.112425,-3.63693 4.927695,-6.26361 5.821203,-8.205532 0.897503,-1.950605 0.88097,-3.233677 0.386273,-4.292629 -0.494119,-1.057715 -1.466552,-1.894711 -2.48081,-2.952082 -1.013319,-1.056389 -2.076577,-2.340244 -2.743071,-4.290975 0.477975,-1.939554 1.381914,-3.916575 2.442922,-6.117299 1.062002,-2.202789 2.277169,-4.621467 3.383367,-7.453091 0.765102,-3.200747 1.867876,-6.908263 2.457691,-11.410789 0.453708,-3.463513 0.517532,-7.348342 -0.02017,-11.759933 3.808362,-1.94941 6.68266,-3.395053 9.333511,-4.375652 2.650122,-0.98033 5.080443,-1.496594 7.480713,-1.569091 0.849269,-0.02565 1.69468,0.0043 2.544379,0.08897 m -24.31789,36.862208 c 0.285783,-0.681992 0.595831,-1.379245 0.920275,-2.09812 0.987499,-2.18802 2.111213,-4.582154 3.083658,-7.347272 1.939733,-5.515573 3.311609,-12.591375 1.726207,-22.604658 3.191452,-1.914728 5.988697,-3.368067 8.580017,-4.373833 2.037811,-0.790934 3.946319,-1.304328 5.816454,-1.548915 0.508551,-0.06651 1.016652,-0.111828 1.525695,-0.136176 2.380222,-0.113846 4.780508,0.230121 7.379482,1.014551 2.925794,0.785291 5.728098,2.011651 8.947669,3.67184 -0.768534,5.418746 -0.628319,10.171393 -0.02686,14.224933 M 65.672884,28.706277 c -0.06699,-1.61211 -0.216819,-3.312679 -0.46493,-5.107501 3.269381,-1.919211 6.103398,-3.362199 8.723093,-4.350077 2.617277,-0.986967 5.011995,-1.515651 7.370882,-1.600848 2.357304,-0.08514 4.676117,0.27333 7.117916,1.060054 2.440763,0.78639 5.005879,2.001544 7.839555,3.625787 -0.850491,3.336369 -1.393657,6.374103 -1.702704,9.157345 -0.684939,6.168485 0.474489,11.376021 1.94124,15.43548 1.074127,2.972809 2.373964,5.500551 3.443733,7.606696 1.081561,2.12937 1.940651,3.852469 2.228791,5.340565 -0.42882,1.630089 -1.41457,2.854888 -2.39596,3.981981 -0.980082,1.125591 -1.99363,2.190959 -2.483117,3.488244 -0.246141,0.652349 -0.363671,1.371596 -0.273722,2.202311 0.0312,0.288175 0.08738,0.590054 0.171918,0.907827 M 86.614375,17.997254 c 0.511465,0.136451 1.028383,0.290339 1.552412,0.461594 2.583832,0.844401 5.334646,2.109007 8.451092,3.779874 -1.865534,10.906186 -0.326428,18.758571 1.706435,24.551159 1.019913,2.906213 2.174576,5.320753 3.112216,7.357545 0.90128,1.957789 1.60474,3.57207 1.80851,4.956212 0.009,0.05779 0.0162,0.115181 0.0229,0.172168 -0.5693,1.567927 -1.69212,2.711611 -2.83152,3.770303 -1.139793,1.059058 -2.297973,2.034586 -2.939771,3.267841 -0.320962,0.616748 -0.51275,1.297803 -0.509188,2.086485 0.0036,0.788754 0.202483,1.684557 0.662102,2.731297 0.92019,2.095651 2.880117,4.786063 6.392827,8.433524 -6.041618,3.450385 -11.899322,5.557916 -17.781579,6.353909 M 96.740155,41.034852 c 0.45582,2.432555 1.064707,4.587561 1.730482,6.512276 1.010365,2.920903 2.151893,5.311405 3.082683,7.320114 0.93098,2.009102 1.65039,3.635073 1.81608,5.020697 -0.57274,1.526153 -1.69287,2.621416 -2.82778,3.628775 -1.135412,1.007812 -2.283255,1.926556 -2.914932,3.106574 -0.315367,0.589128 -0.501113,1.242318 -0.48949,1.99763 0.01162,0.755094 0.220621,1.612249 0.695267,2.606306 0.947136,1.983601 2.962645,4.530183 6.593745,7.882725 -1.20516,0.627803 -2.40072,1.198726 -3.58802,1.713138 -6.638237,2.8761 -13.162495,4.371798 -20.034065,4.274281 -5.706188,-0.08098 -11.624139,-1.263691 -17.911507,-3.616465 M 96.521643,68.541535 c -0.155032,0.211967 -0.295696,0.430367 -0.418773,0.657371 -0.335089,0.618042 -0.539641,1.299596 -0.549119,2.087709 -0.0095,0.787773 0.176057,1.682628 0.621728,2.724329 0.890012,2.080291 2.825769,4.762023 6.333101,8.323297 -8.116726,4.481826 -15.864987,6.452601 -23.874897,5.993424 -2.665224,-0.152787 -5.363697,-0.57475 -8.124399,-1.265738 -5.54584,-1.388096 -11.119533,-3.680223 -16.856075,-6.865274 3.246121,-3.723691 5.109717,-6.205754 6.086864,-8.147388 0.959088,-1.905751 0.977565,-3.15395 0.516674,-4.179383 -0.459627,-1.022619 -1.396176,-1.819796 -2.36729,-2.823533 -0.970995,-1.003614 -1.988317,-2.224948 -2.602254,-4.094424 0.04272,-0.15042 0.08821,-0.30103 0.136332,-0.451934 m -0.201503,18.663615 c 3.127545,-3.745089 4.903253,-6.385087 5.766601,-8.33641 0.865198,-1.955505 0.824578,-3.238602 0.304291,-4.292684 -0.520715,-1.054949 -1.522661,-1.883052 -2.580571,-2.929195 -1.058365,-1.046591 -2.16939,-2.308154 -2.913543,-4.233911 0.404721,-1.912467 1.22155,-3.856655 2.169552,-6.013702 0.94733,-2.155519 2.028753,-4.530163 2.958792,-7.29697 1.050772,-3.125977 1.913608,-6.767174 2.169949,-11.182925 0.19745,-3.401296 0.08061,-7.231562 -0.525056,-11.584908 3.260011,-1.896955 6.179047,-3.307981 8.870511,-4.246915 0.02306,-0.0081 0.0461,-0.01606 0.06914,-0.02404 m -16.232453,40.60263 c 0.424537,-1.167348 0.966691,-2.376561 1.563345,-3.671552 0.972985,-2.111785 2.092363,-4.454607 3.080439,-7.213855 1.973019,-5.509744 3.440603,-12.725406 2.149037,-23.200866 3.309765,-2.087193 6.205495,-3.688786 8.904145,-4.826218 1.472844,-0.620777 2.88096,-1.1006 4.256774,-1.443786 1.139851,-0.284327 2.263296,-0.463404 3.383447,-0.541563 2.468537,-0.172243 4.941064,0.143835 7.583235,0.927199 2.647132,0.784834 5.476744,2.041597 8.694792,3.775609 -1.552156,11.16186 0.346714,19.534376 2.683999,25.585971 0.37929,0.982041 0.771524,1.908271 1.16496,2.783267 M 65.798103,29.896614 c -0.06216,-1.659627 -0.211645,-3.405233 -0.46528,-5.240274 3.266358,-1.901664 6.10958,-3.299524 8.722584,-4.224418 2.613027,-0.924902 5.010274,-1.381732 7.36364,-1.382552 2.352928,-8.19e-4 4.670936,0.45465 7.107004,1.365753 2.43515,0.910758 4.997504,2.280735 7.823672,4.111427 -0.843638,3.483596 -1.388581,6.680439 -1.704363,9.624937 -0.714103,6.658628 0.346402,11.899638 1.705565,15.911299 0.985895,2.909936 2.187366,5.336062 3.160184,7.332103 0.983891,2.018755 1.755881,3.641195 1.967981,5.040584 -0.51878,1.534154 -1.588336,2.646031 -2.669361,3.670496 -1.080924,1.024369 -2.184575,1.971305 -2.774069,3.176468 -0.294954,0.603003 -0.461483,1.271316 -0.429789,2.045895 0.03173,0.775532 0.261801,1.654706 0.757904,2.685652 0.280188,0.582249 0.644102,1.210767 1.103801,1.897091 M 87.223474,18.536139 c 0.416396,0.109626 0.836638,0.231139 1.261609,0.364469 2.545776,0.798712 5.256007,2.019794 8.321928,3.644805 -2.022903,10.7573 -0.645125,18.533226 1.19713,24.169902 0.927134,2.836718 1.987555,5.180627 2.836449,7.14665 0.84948,1.967365 1.49519,3.573848 1.59599,4.938693 0.0929,-0.366467 0.0783,-0.333463 0.0634,-0.300658 0,0 0,0 0,0 -0.76607,1.856394 -1.91795,2.924007 -3.086825,3.9347 -1.193438,1.031934 -2.388988,1.992762 -3.06341,3.226408 -0.336849,0.61616 -0.542952,1.299286 -0.554017,2.093352 -0.01107,0.794286 0.17284,1.699552 0.616615,2.765078 0.794353,1.907277 2.404357,4.297273 5.222137,7.546938 M 95.911435,40.458324 c 0.473209,3.499894 1.268597,6.48633 2.163532,9.07427 1.004239,2.904022 2.127153,5.287281 3.042033,7.302974 0.91327,2.012146 1.61549,3.65034 1.76566,5.043579 -0.59076,1.536994 -1.72897,2.644383 -2.884635,3.666958 -1.156197,1.023042 -2.324286,1.957348 -2.97665,3.153782 -0.325741,0.597408 -0.521832,1.258743 -0.52252,2.024062 -6.88e-4,0.765059 0.193999,1.633806 0.649746,2.643345 0.908317,2.012042 2.869519,4.610462 6.403529,8.035864 -0.43019,0.226445 -0.85914,0.445847 -1.28692,0.658216 -7.635936,3.790807 -14.789989,5.688033 -22.203778,5.49283 -4.840567,-0.12745 -9.760778,-1.151698 -14.859914,-3.113375 M 100.44561,64.562235 c -0.910187,0.82208 -1.753131,1.633209 -2.280733,2.59943 -0.338475,0.619864 -0.546668,1.302672 -0.561036,2.092163 -0.01436,0.789163 0.165047,1.684926 0.60148,2.727464 0.873524,2.086643 2.775079,4.758099 6.203799,8.314551 -8.266436,4.463203 -16.248023,6.406078 -24.574948,5.947811 C 77.959086,86.140459 76.06295,85.91565 74.134759,85.569863 67.475362,84.37562 60.967605,81.936778 54.24709,78.252119 c 3.214154,-3.718935 5.047422,-6.199589 6.001222,-8.14881 0.934277,-1.909323 0.934888,-3.163262 0.454904,-4.19162 C 60.223831,64.884615 59.264522,64.083528 58.258802,63.072624 57.208208,62.090565 56.185316,60.908958 55.5,59.120537"
       id="path7350" />
  </g>
  <g
     inkscape:groupmode="layer"
     id="layer2"
     inkscape:label="shirt stroke 2"
     style="display:inline;opacity:0.769">
    <path
       inkscape:connector-curvature="0"
       id="path4526"
       d="m 87.876923,36.816917 c 0.310207,-0.20576 -4.777265,2.643692 -3.698193,2.280869 -0.167007,0.05616 4.890608,-3.340232 5.730831,-4.353836 0.874421,-1.054861 -1.325046,0.29549 -3.683221,1.839651 -2.390528,1.56535 -5.039991,3.378737 -4.780014,3.355881 -0.08743,0.0077 2.434166,-1.652273 4.897428,-3.373078 2.488075,-1.738138 4.847688,-3.485117 5.021688,-3.738139 0.476606,-0.693054 -2.174692,1.071251 -5.010237,2.995964 -2.841453,1.928721 -5.899549,4.031056 -5.621862,4.034105 -0.01477,-1.62e-4 2.900004,-1.896976 5.719488,-3.886869 2.852462,-2.013165 5.514533,-4.049583 5.759708,-4.445322 0.500783,-0.808325 -2.251136,1.032246 -5.220967,3.058428 -2.97677,2.030918 -6.229245,4.275634 -6.045953,4.299275 -0.06264,-0.0081 3.126962,-2.132273 6.190374,-4.355216 3.101004,-2.250221 5.968431,-4.51735 6.200577,-4.947696 0.439181,-0.81413 -2.93323,1.552389 -6.618591,4.127731 -3.681367,2.572551 -7.734628,5.380317 -7.506125,5.43473 0.0354,0.0085 3.93471,-2.553194 7.577209,-5.165757 3.689837,-2.646513 7.004164,-5.262435 7.139222,-5.532357 0.316841,-0.633215 -3.35389,2.051521 -7.429946,4.931424 -4.055534,2.865403 -8.537821,5.928267 -8.367123,5.978802 -0.02089,-0.0062 4.374827,-2.891608 8.439602,-5.836307 4.115831,-2.981683 7.766721,-5.911679 7.897212,-6.191938 0.292753,-0.628752 -3.616072,2.296198 -8.00091,5.428287 -4.356424,3.111792 -9.208986,6.430933 -9.047747,6.48908 -0.01417,-0.0051 4.751826,-3.133592 9.132008,-6.351298 4.442649,-3.263595 8.331176,-6.478747 8.505422,-6.886657 0.317376,-0.742978 -3.905779,2.476823 -8.707862,5.932728 -4.78819,3.445906 -10.191762,7.097923 -10.033997,7.16938 -0.02908,-0.01317 5.302396,-3.530022 10.121526,-7.09993 4.885755,-3.61926 9.090819,-7.143519 9.196752,-7.418276 0.229625,-0.595576 -3.897689,2.661604 -8.591828,6.145565 -4.652167,3.452812 -9.891755,7.131371 -9.707544,7.222799 0.05477,0.02717 5.145309,-3.375594 9.733856,-6.796429 4.662017,-3.475609 8.678649,-6.866392 8.760692,-7.089096 0.199618,-0.541848 -4.004614,2.822439 -8.826066,6.406741 -4.795197,3.564782 -10.201808,7.291022 -10.04271,7.375482 -0.01692,-0.009 5.366066,-3.620484 10.15299,-7.246556 4.806198,-3.640671 8.998059,-7.252105 8.858763,-7.33394 -0.281203,-0.165206 -4.782332,3.439557 -9.76306,7.151684 -4.964951,3.700367 -10.421583,7.472828 -10.230019,7.58423 0.04708,0.02739 5.61201,-3.703509 10.533513,-7.408233 4.960463,-3.734052 9.270945,-7.438474 9.158016,-7.504789 -0.254598,-0.149507 -4.632191,3.380811 -9.470992,7.014236 -4.823604,3.622015 -10.119496,7.312902 -9.930111,7.42748 0.04605,0.02787 5.452111,-3.620316 10.241744,-7.242676 4.827158,-3.650738 9.03291,-7.273291 8.925935,-7.336074 -0.249034,-0.146157 -4.696751,3.455618 -9.63528,7.159722 -4.922574,3.692135 -10.346116,7.450699 -10.176595,7.558282 0.03051,0.01937 5.549924,-3.708721 10.406064,-7.42042 4.896266,-3.742367 9.121127,-7.464695 8.912087,-7.587152 -0.349365,-0.204657 -4.945306,3.478145 -10.041831,7.278139 -5.080565,3.788096 -10.677589,7.657685 -10.524123,7.767101 0.024,0.01712 5.714042,-3.830649 10.70281,-7.652947 5.032525,-3.855823 9.360773,-7.686236 9.162249,-7.802035 -0.338737,-0.197583 -4.822265,3.425545 -9.792155,7.162557 -4.954503,3.725444 -10.410671,7.530062 -10.273066,7.63761 -0.0089,-0.007 5.530399,-3.763216 10.432304,-7.529919 4.922106,-3.782226 9.189721,-7.528326 9.078998,-7.592591 -0.254115,-0.14749 -4.511814,3.359473 -9.237278,6.966506 -4.710652,3.595728 -9.899961,7.257609 -9.76981,7.363438 -0.01417,-0.01154 5.251783,-3.629215 9.912192,-7.264599 4.67945,-3.65024 8.735434,-7.273628 8.566868,-7.370843 -0.315519,-0.181968 -4.494656,3.239235 -9.095215,6.772114 -4.587167,3.522594 -9.612013,7.126011 -9.460517,7.257049 0.02986,0.02584 5.166653,-3.545985 9.701573,-7.086781 4.573539,-3.570949 8.551004,-7.116954 8.423125,-7.190232 -0.276411,-0.158394 -4.402587,3.259134 -8.959818,6.781999 -4.543655,3.512372 -9.532436,7.098601 -9.391792,7.22514 0.02139,0.01925 5.112687,-3.54243 9.60549,-7.071221 4.531443,-3.559142 8.47191,-7.092772 8.337641,-7.169154 -0.281612,-0.160201 -4.575668,3.415032 -9.36224,7.090397 -4.771443,3.663749 -10.046799,7.392785 -9.95416,7.482109 -0.03911,-0.0377 5.27793,-3.744425 9.98274,-7.454121 4.723548,-3.72447 8.822768,-7.407593 8.708035,-7.471976 -0.262859,-0.147497 -4.404455,3.333578 -8.996208,6.924439 -4.577858,3.579996 -9.621726,7.237177 -9.470624,7.387555 0.03857,0.03839 5.215194,-3.581717 9.748982,-7.180004 4.574459,-3.630567 8.512287,-7.247066 8.303692,-7.362826 -0.359284,-0.199384 -4.450826,3.191356 -8.948204,6.697836 -4.484888,3.496747 -9.395013,7.080029 -9.264636,7.217043 0.02062,0.02165 5.041045,-3.539721 9.460824,-7.063249 4.459074,-3.554855 8.331171,-7.084169 8.201303,-7.155006 -0.283311,-0.154531 -4.259676,3.204328 -8.656279,6.660693 -4.383894,3.446373 -9.201528,6.960284 -9.104786,7.065899 -0.02757,-0.0301 4.847991,-3.514101 9.156818,-7.013521 4.32525,-3.512757 8.071426,-7.000928 7.87305,-7.106071 -0.354832,-0.188067 -4.332284,3.153594 -8.710894,6.598034 -4.366625,3.435012 -9.151008,6.944523 -9.065493,7.045021 -0.03384,-0.03979 4.797282,-3.526043 9.073999,-7.018911 4.292246,-3.505552 8.021981,-6.979658 7.866743,-7.058549 -0.316001,-0.160587 -4.146515,3.10781 -8.348046,6.488413 -4.163937,3.350351 -8.755291,6.85064 -8.630428,7.002582 0.03912,0.0476 4.775462,-3.370793 8.942285,-6.76035 4.202943,-3.418941 7.852223,-6.824013 7.706321,-6.896698 -0.307481,-0.153177 -4.218808,3.205971 -8.529656,6.678302 -4.270949,3.440193 -9.001314,7.034008 -8.877675,7.189476 0.04154,0.05222 4.922613,-3.45778 9.206305,-6.93503 4.321825,-3.508202 8.064733,-7.000716 7.926615,-7.068283 -0.297142,-0.145362 -4.395731,3.399539 -8.958151,7.055455 -4.549327,3.645426 -9.583177,7.370402 -9.459615,7.532747 0.02854,0.03749 5.202233,-3.667621 9.709801,-7.331648 4.550308,-3.698771 8.458259,-7.377908 8.280464,-7.462181 -0.338641,-0.160511 -4.216597,3.173701 -8.487217,6.612287 -4.259506,3.429641 -8.931769,6.936813 -8.826599,7.077487 -0.0057,-0.0077 4.76446,-3.470536 8.966014,-6.951271 4.215946,-3.492659 7.855776,-6.967458 7.651072,-7.058735 -0.371486,-0.165649 -4.33276,3.250832 -8.696336,6.782937 -4.321852,3.49833 -9.115267,7.16002 -9.005273,7.31592 0.03504,0.04966 4.979861,-3.536806 9.28795,-7.088183 4.347312,-3.583712 8.083998,-7.156296 7.884299,-7.24052 -0.369315,-0.15576 -4.165993,3.128998 -8.3321,6.513471 -4.156137,3.376376 -8.703404,6.828172 -8.608716,6.965996 -0.0111,-0.01615 4.627261,-3.431465 8.711357,-6.86037 4.09642,-3.439253 7.637106,-6.861051 7.424379,-6.94192 -0.393499,-0.149592 -3.930926,2.908799 -7.760818,6.066463 -3.797204,3.130714 -7.946201,6.402796 -7.850086,6.545827 0.01583,0.02355 4.290371,-3.19568 8.05128,-6.378047 3.791103,-3.207916 7.098144,-6.40528 6.921978,-6.465732 -0.363686,-0.124799 -4.015756,3.078538 -8.002359,6.380775 -3.950871,3.272639 -8.302735,6.692229 -8.200921,6.851945 0.02682,0.04208 4.534548,-3.318571 8.467729,-6.644779 3.965475,-3.353517 7.390139,-6.703137 7.153691,-6.775553 -0.427648,-0.130973 -4.017937,2.993255 -7.91388,6.199613 -3.888638,3.200343 -8.106004,6.464776 -8.033227,6.584147 -0.02636,-0.04325 4.24942,-3.288545 8.035662,-6.531874 3.79367,-3.249688 7.110137,-6.478326 6.935398,-6.520053 -0.381366,-0.09106 -3.73756,2.86765 -7.360002,5.894214 -3.616909,3.021942 -7.522619,6.097865 -7.451288,6.218091 -0.02703,-0.04555 3.938931,-3.106583 7.445215,-6.165571 3.510989,-3.063094 6.579067,-6.111822 6.320207,-6.153292 -0.485053,-0.07771 -3.700006,2.716734 -7.109374,5.570438 -3.385331,2.833584 -7.020366,5.768784 -6.962086,5.871986 -0.02809,-0.04973 3.653037,-2.938363 6.917532,-5.818185 3.266156,-2.881288 6.139172,-5.749359 5.872079,-5.765276 -0.519615,-0.03096 -3.625076,2.670081 -6.882053,5.417882 -3.236265,2.730328 -6.681464,5.552627 -6.615331,5.676798 -0.0179,-0.03363 3.511052,-2.814557 6.668914,-5.586277 3.157268,-2.771197 5.971538,-5.534748 5.793945,-5.530979 -0.45545,0.0097 -3.350565,2.559765 -6.368428,5.147277 -3.001062,2.573107 -6.181464,5.229415 -6.103197,5.379476 -0.0059,-0.0115 3.31784,-2.642111 6.258138,-5.261744 2.937673,-2.617293 5.523253,-5.230625 5.17155,-5.19588 -0.655652,0.06477 -3.668083,2.648331 -6.749228,5.248423 -3.066478,2.587716 -6.264558,5.243395 -6.194279,5.390527 -0.0089,-0.01852 3.326745,-2.655336 6.302025,-5.276625 2.969733,-2.616398 5.620096,-5.231944 5.359895,-5.183508 -0.606789,0.112952 -3.088687,2.232833 -5.552357,4.363994 -2.455694,2.124262 -4.942786,4.301505 -4.848179,4.494684 0.01502,0.03067 2.765396,-2.193575 5.177828,-4.366984 2.41829,-2.178685 4.548766,-4.350284 4.114104,-4.240678 -0.825591,0.208185 -3.181586,2.135474 -5.431417,4.027147 -2.247239,1.889493 -4.430237,3.77961 -4.373299,3.902558 -0.02652,-0.05725 2.224694,-1.943056 4.208118,-3.770437 1.978793,-1.823111 3.720452,-3.60061 3.224543,-3.41993 -0.977486,0.356135 -3.185638,2.11366 -5.201634,3.798367 -2.019196,1.68738 -3.892524,3.342524 -3.824081,3.507273 -0.0093,-0.02232 2.06307,-1.731451 3.946635,-3.407909 1.877103,-1.670705 3.596842,-3.325994 3.327912,-3.211855 -0.823323,0.349431 -2.477498,1.652095 -3.938539,2.885252 -1.465037,1.23653 -2.766928,2.430261 -2.70513,2.578698 -0.01841,-0.0442 1.445668,-1.29805 2.681512,-2.461005 1.23577,-1.162887 2.25398,-2.235098 1.589807,-1.915693 -2.660727,1.279566 -4.496544,2.866048 -4.385715,3.149767 -0.04475,-0.114563 2.21433,-2.078091 0.948323,-1.406589 -2.876415,1.525676 -2.427227,1.840801 -2.427227,1.840801 0,0 3.1015,-1.937877 1.678357,-1.188715 0.20109,-0.105857 -1.112911,1.022708 -0.96845,1.406589 0.148074,0.393475 1.526874,-0.502804 2.71416,-1.444053 1.183316,-0.938101 2.181814,-1.927897 1.716626,-1.705713 0.22104,-0.105574 -0.855183,0.904894 -2.007057,1.979633 -1.149565,1.072584 -2.395457,2.226506 -2.32689,2.397065 0.149571,0.372049 2.303023,-1.150052 4.124337,-2.682249 1.818714,-1.530011 3.327473,-3.089636 2.597517,-2.781702 -0.118476,0.04998 -1.90545,1.642445 -3.721367,3.2392 -1.815935,1.596769 -3.70576,3.236328 -3.647903,3.380563 0.139239,0.347126 2.785995,-1.555573 5.126064,-3.49794 2.335111,-1.93825 4.403516,-3.952435 4.004189,-3.8077 0.154011,-0.05582 -1.657042,1.659952 -3.589422,3.420177 -1.928144,1.756366 -4.024067,3.596528 -3.946127,3.770191 0.16766,0.373574 2.997483,-1.654711 5.509372,-3.744257 2.509841,-2.087842 4.731794,-4.2666 4.408811,-4.185447 0.148709,-0.03738 -2.055519,2.073053 -4.447342,4.203353 -2.396915,2.134837 -5.015844,4.303167 -4.967758,4.404308 0.138262,0.290815 3.223403,-1.976523 5.921236,-4.274832 2.700764,-2.300807 5.049411,-4.666156 4.606062,-4.583846 -0.02723,0.0051 -2.72651,2.550684 -5.68684,5.12975 -2.96033,2.579067 -6.189076,5.191573 -6.124759,5.330384 0.152297,0.32869 3.897935,-2.362714 7.19285,-5.099182 3.302591,-2.742842 6.192693,-5.568359 5.902892,-5.539769 0.115793,-0.01143 -2.548747,2.542797 -5.478978,5.125057 -2.932707,2.584441 -6.165836,5.203467 -6.10035,5.332566 0.159584,0.314604 3.839816,-2.339387 7.046785,-5.040384 3.217084,-2.709514 5.988435,-5.495131 5.57547,-5.486368 -0.06227,0.0014 -2.933649,2.705804 -6.090786,5.447373 -3.157138,2.741568 -6.608719,5.520221 -6.531152,5.669883 0.1728,0.333412 4.07941,-2.452094 7.508585,-5.29324 3.442927,-2.852539 6.428934,-5.784658 6.147556,-5.801439 0.06675,0.004 -2.888274,2.81562 -6.15972,5.671394 -3.269908,2.854434 -6.885407,5.748979 -6.795643,5.912065 0.188799,0.343016 4.242948,-2.519919 7.804402,-5.445204 3.57889,-2.939609 6.675632,-5.957904 6.43079,-5.99722 0.07603,0.01221 -3.07649,3.006411 -6.599623,6.048734 -3.518804,3.038582 -7.432432,6.114064 -7.342071,6.27013 0.192766,0.332929 4.502265,-2.68474 8.263129,-5.765893 3.782786,-3.099112 7.022138,-6.27437 6.721479,-6.346412 -0.02024,-0.0049 -3.406193,3.182304 -7.210455,6.408584 -3.804262,3.226279 -8.03766,6.491685 -7.947368,6.643342 0.194632,0.326907 4.797062,-2.865282 8.821228,-6.112644 4.050996,-3.269013 7.526798,-6.604057 7.308805,-6.671114 0.07445,0.0229 -3.438806,3.320973 -7.425439,6.659389 -3.97731,3.330611 -8.439611,6.678147 -8.388016,6.760942 0.159834,0.256491 4.874699,-3.040457 8.981702,-6.374508 4.137414,-3.358739 7.673841,-6.767548 7.410926,-6.858212 -0.0028,-9.55e-4 -3.383951,3.16081 -7.186983,6.347402 -3.803031,3.186593 -8.034748,6.398015 -7.970058,6.496378 0.176306,0.268071 4.674456,-2.874144 8.617747,-6.060504 3.971262,-3.208961 7.38829,-6.469737 7.17363,-6.551788 0.05993,0.02292 -3.571117,3.395259 -7.692619,6.822167 -4.110185,3.417497 -8.720539,6.861319 -8.640619,6.980125 0.192981,0.286867 5.09209,-3.070685 9.366474,-6.474426 4.307434,-3.430059 7.986867,-6.911843 7.767223,-7.005042 0.05174,0.02195 -3.777516,3.546254 -8.152988,7.118998 -4.361869,3.561634 -9.273591,7.138385 -9.224293,7.209705 0.165085,0.238823 5.293872,-3.278752 9.760968,-6.822998 4.504503,-3.573926 8.349096,-7.183095 8.142384,-7.27586 0.05953,0.02671 -3.672384,3.454211 -7.916683,6.936931 -4.231082,3.471877 -8.97907,6.966442 -8.900874,7.073075 0.197432,0.26923 5.206041,-3.134392 9.575004,-6.582754 4.404079,-3.47608 8.161009,-6.999019 7.934701,-7.107019 0.03582,0.0171 -3.967146,3.650014 -8.549179,7.33979 -4.56638,3.677172 -9.713007,7.373384 -9.652773,7.454038 0.18148,0.243009 5.551436,-3.380524 10.209137,-7.039318 4.698368,-3.690736 8.678507,-7.420236 8.417374,-7.548883 -0.02505,-0.01234 -3.852063,3.457311 -8.189877,6.945637 -4.337816,3.488326 -9.192112,6.995325 -9.143419,7.057677 0.173054,0.22159 5.222723,-3.220308 9.625702,-6.696684 4.439595,-3.505288 8.226389,-7.047503 7.980066,-7.171095 -0.015,-0.0076 -3.748417,3.374292 -7.967433,6.774215 -4.219015,3.399921 -8.928988,6.817948 -8.876593,6.882834 0.178956,0.221625 5.085567,-3.125798 9.376622,-6.510257 4.325646,-3.411743 8.027973,-6.861425 7.794896,-6.980739 -0.0051,-0.0026 -3.82061,3.450109 -8.130212,6.9368 -4.309601,3.486691 -9.123485,7.007358 -9.011968,7.14066 0.239799,0.286637 5.3417,-3.108072 9.806915,-6.553085 4.500668,-3.472367 8.349384,-6.991333 8.164694,-7.089969 0.06271,0.03349 -3.778851,3.478806 -8.137232,6.985364 -4.343287,3.494415 -9.203407,7.01364 -9.094676,7.134227 0.242603,0.269056 5.371452,-3.127283 9.849137,-6.579862 4.513502,-3.480194 8.356594,-7.010257 8.108343,-7.146729 -0.02602,-0.01431 -3.987834,3.497874 -8.465681,7.034822 -4.477847,3.536947 -9.479344,7.098664 -9.399897,7.183432 0.217093,0.231631 5.436747,-3.234958 10.012003,-6.734488 4.612534,-3.528044 8.568259,-7.086239 8.399947,-7.180392 0.07576,0.04238 -3.960654,3.618227 -8.571466,7.244017 -4.59351,3.612186 -9.753993,7.233505 -9.689304,7.298814 0.206942,0.208926 5.557794,-3.331651 10.223645,-6.911213 4.70508,-3.609658 8.708815,-7.253233 8.44798,-7.40078 -0.04048,-0.0229 -4.233322,3.647431 -8.97767,7.354082 -4.74435,3.70665 -10.051865,7.449623 -9.926685,7.572014 0.269249,0.263255 5.848787,-3.347603 10.707712,-7.00929 4.89951,-3.69227 9.055404,-7.426602 8.817209,-7.563216 -0.01828,-0.01047 -4.052316,3.509807 -8.604574,7.052619 -4.552258,3.54281 -9.62967,7.108145 -9.542325,7.187757 0.237109,0.216113 5.525199,-3.249511 10.150412,-6.758418 4.66238,-3.537106 8.642124,-7.109771 8.40163,-7.248723 -0.02406,-0.0139 -4.0962,3.519803 -8.691087,7.074754 -4.594889,3.55495 -9.719097,7.13115 -9.637905,7.202259 0.23441,0.205297 5.556727,-3.277406 10.222891,-6.794696 4.703411,-3.545369 8.732993,-7.118507 8.533587,-7.234467 0.0391,0.02273 -4.119394,3.609445 -8.838759,7.257217 -4.70173,3.63414 -9.958849,7.288448 -9.849723,7.378225 0.267152,0.219783 5.751013,-3.320648 10.538582,-6.908607 4.82605,-3.616798 8.93135,-7.270461 8.673558,-7.421337 -0.04209,-0.02463 -4.408993,3.714352 -9.35453,7.480311 -4.945538,3.765958 -10.478553,7.5589 -10.373163,7.6422 0.26769,0.211588 6.018251,-3.473773 11.048045,-7.188372 5.070943,-3.744991 9.400805,-7.510711 9.228954,-7.611794 0.06996,0.04115 -4.366042,3.837692 -9.443063,7.692445 -5.056592,3.839243 -10.743608,7.69017 -10.643145,7.762537 0.271095,0.195276 6.159154,-3.555266 11.310583,-7.328871 5.193408,-3.804357 9.629449,-7.622562 9.470657,-7.716369 0.08112,0.04792 -4.252399,3.738281 -9.193504,7.480659 -4.921608,3.727608 -10.439301,7.462927 -10.339394,7.526912 0.279621,0.179084 5.988158,-3.457229 10.975279,-7.132552 5.026255,-3.704161 9.303484,-7.433765 9.047198,-7.585453 -0.04238,-0.02508 -4.351766,3.593134 -9.20538,7.230857 -4.853612,3.637725 -10.257656,7.294954 -10.170908,7.347894 0.270314,0.164969 5.848892,-3.402491 10.733764,-7.006766 4.922155,-3.631783 9.123893,-7.286955 8.873987,-7.434949 -0.03741,-0.02216 -4.45326,3.680044 -9.440841,7.400812 -4.987582,3.720769 -10.552937,7.460103 -10.464081,7.512209 0.276425,0.162101 6.014932,-3.487834 11.039855,-7.168566 5.063528,-3.709009 9.386929,-7.435317 9.164083,-7.567349 -0.01003,-0.006 -4.307968,3.603573 -9.142355,7.232359 -4.834385,3.628785 -10.211265,7.276867 -10.078033,7.348139 0.321859,0.172171 5.470605,-3.058067 10.116814,-6.422211 4.728324,-3.423599 8.753044,-6.847527 8.949177,-7.360012 0.02958,-0.0773 -4.156335,3.372592 -8.856231,6.852551 -4.699894,3.479959 -9.923002,6.989989 -9.837011,7.032974 0.280052,0.13999 5.262333,-3.00744 9.776388,-6.271183 4.591012,-3.319386 8.527814,-6.630864 8.714277,-7.097183 0.01274,-0.03188 -4.373501,3.562881 -9.294351,7.183003 -4.92085,3.620122 -10.384321,7.265612 -10.231674,7.335205 0.353274,0.161056 5.463782,-2.983351 10.077567,-6.218209 4.687335,-3.286422 8.704186,-6.549595 8.851774,-6.883901 -0.06203,0.140527 -4.057828,3.344692 -8.595136,6.654459 -4.483647,3.270625 -9.380892,6.529422 -9.231719,6.583496 0.363747,0.131857 4.914178,-2.648136 9.083122,-5.551008 4.233444,-2.947782 7.916923,-5.909735 8.136065,-6.366358 0.0098,-0.02046 -3.807114,2.962062 -7.976935,5.961967 -4.169821,2.999904 -8.697087,6.017195 -8.531995,6.066278 0.391739,0.116469 4.552958,-2.402894 8.393736,-5.048647 3.896501,-2.684135 7.320709,-5.397707 7.559452,-5.861578 0.01429,-0.02779 -3.456786,2.630867 -7.21007,5.304411 -3.753283,2.673543 -7.79225,5.36197 -7.659444,5.393701 0.373125,0.08916 4.086221,-2.167459 7.52351,-4.508278 3.479118,-2.36931 6.570101,-4.750914 6.738038,-5.054182 -0.08516,0.153794 -3.064898,2.418594 -6.270161,4.72664 -3.171208,2.283527 -6.478558,4.547244 -6.253909,4.576273 0.506964,0.06551 3.364372,-1.60418 6.030391,-3.373587 2.693594,-1.787707 5.113748,-3.624303 5.341812,-3.984117 -0.06699,0.105688 -2.852872,2.149349 -5.822352,4.229222 -2.942032,2.06065 -5.985116,4.100673 -5.77607,4.102969 0.53663,0.006 3.133103,-1.491938 5.59596,-3.120971 2.490102,-1.647053 4.759377,-3.371553 5.136734,-3.909098 0.04662,-0.06641 -2.480306,1.725928 -5.079612,3.527608 -2.600824,1.802731 -5.260543,3.611643 -4.941261,3.583609 0.700479,-0.06151 2.726209,-1.172789 4.609756,-2.363221 1.898738,-1.200034 3.604155,-2.448479 3.927822,-2.832312 -0.139353,0.165257 -1.767877,1.31873 -3.33,2.422545 -1.547996,1.093831 -2.977811,2.103517 -2.463129,1.93129 2.059185,-0.587101 4.695229,-2.932953 4.695229,-2.932953 z"
       style="opacity:0.5;fill:#000000;fill-opacity:1;stroke:none;stroke-width:1.18038809px;stroke-linecap:butt;stroke-linejoin:miter;stroke-opacity:1" />
  </g>
  <g
     inkscape:groupmode="layer"
     id="layer1"
     inkscape:label="wv logo">
    <g
       transform="matrix(0.116768,0.000000,0.000000,-0.116768,67.000000,74.000000)"
       inkscape:label="ink_ext_XXXXXX"
       id="g4504">
      <g
         transform="matrix(0.100000,0.000000,0.000000,0.100000,0.000000,0.000000)"
         id="g4506">
        <path
           inkscape:connector-curvature="0"
           id="path4508"
           style="fill:#0f2b53;fill-opacity:1;fill-rule:nonzero;stroke:none"
           d="M2055.35763223 1884.07782954L1725.61632594 1884.07782954L1705.81659414 1883.89458833C1644.931676 1884.9634954 1622.85383599 1861.60024085 1604.56954139 1832.81101041L1345.47930409 1438.13997965L1097.60132111 1824.87055788L1089.32089302 1837.53456166C1131.99920479 1837.53456166 1125.21440425 1848.89551681 1113.31871746 1849.2416391L1113.31871746 1884.07782954C1070.62059605 1884.07782954 1070.60078641 1884.06764948 1070.60078641 1884.06764948C1113.35833673 1884.07782954 1113.32862227 1884.0880096 1113.31871746 1884.0880096L1113.31871746 1849.2416391C1058.66548035 1848.89551681 1051.87077499 1837.53456166 1051.87077499 1837.53456166L1043.59034689 1824.87055788L803.804600469 1438.13997965L536.622126613 1832.81101041C518.360613099 1861.60024085 496.283763571 1884.9634954 435.373092905 1883.89458833L415.57435159 1884.07782954L85.6399013428 1884.07782954L85.5355045578 1541.51822417L279.928855344 1541.51822417C320.806040501 1562.29608095 339.783672379 1560.30078775 367.826193972 1525.70891892L379.453460184 1508.15848283L771.296986783 877.184674926C771.296986783 877.184674926 784.053402282 856.847954398 805.696420767 856.736991664C829.050991855 856.634172984 842.000551311 877.284439585 842.000551311 877.284439585L1113.31871746 1229.25517788L1113.31871746 1198.9586188L1070.60078641 1199.00951914L1113.31871746 1198.90771846L1113.31871746 1229.25517788L1307.94994753 877.729308528C1307.94994753 877.729308528 1321.3511667 856.888674667 1341.4777575 856.399013428C1363.12969032 855.850307798 1375.05509156 877.244737323 1375.05509156 877.244737323L1761.74910313 1508.15848283L1773.37735982 1525.70891892C1793.35537835 1538.56600464 1818.70180839 1541.945787 1859.57899355 1541.51822417L2055.35763223 1542.45479036L2055.35763223 1884.07782954"
           transform="matrix(1.000000,0.000000,0.000000,1.000000,0.000000,0.000000)" />
        <path
           inkscape:connector-curvature="0"
           id="path4510"
           style="fill:#0f2b53;fill-opacity:1;fill-rule:nonzero;stroke:none"
           d="M1541.51822417 942.038914771L1341.64368705 634.312364578L1067.55119432 1027.67881611L856.399013428 720.527006356L1301.34887821 30.0935463642C1316.70260706 4.14326380531 1328.88383053 0.273654206301 1335.15900625 1.60233325825e-13C1348.59726015 -0.593543985502 1356.35892425 6.54053780012 1371.00432642 30.6755857236L1720.37897501 661.217994841C1751.47551355 685.808896303 1803.37291281 685.119210743 1803.37291281 685.119210743L2055.35763223 685.119210743L2055.35763223 1027.67881611L1662.00687139 1027.67881611C1577.35356791 1000.95424311 1541.51822417 942.038914771 1541.51822417 942.038914771"
           transform="matrix(1.000000,0.000000,0.000000,1.000000,0.000000,0.000000)" />
        <path
           inkscape:connector-curvature="0"
           id="path4512"
           style="fill:#0f2b53;fill-opacity:1;fill-rule:nonzero;stroke:none"
           d="M1497.31731475 45.2433576594C1504.79495066 45.2433576594 1512.18052266 45.4710550432 1512.18052266 53.8660918775C1512.18052266 84.0336425741 1506.42141319 85.6399013428 1500.4372586 85.6399013428L1455.87832283 85.6399013428L1455.87832283 85.6399013428ZM1489.26683668 -5.55399458297e-13L1455.87832283 -5.55399458297e-13L1455.87832283 85.6399013428L1502.16601437 85.6399013428C1513.31597764 67.5752951482 1518.27719982 62.7444486303 1518.27719982 53.8660918775C1518.27719982 45.1314524761 1512.50786103 41.2156916708 1505.84857105 40.068919267L1520.56856842 -5.55399458297e-13L1513.43872953 -5.55399458297e-13L1499.51661943 -5.80195432972e-14L1489.26683668 -5.80195432972e-14ZM1462.56830079 42.829929054C1462.56830079 22.3319477178 1477.97366288 6.10948087023 1498.70850283 6.10948087023C1519.43311345 6.10948087023 1534.83847554 22.3319477178 1534.83847554 42.829929054C1534.83847554 63.307861564 1519.43311345 79.5423986234 1498.70850283 79.5423986234C1477.97366288 122.352370912 1462.56830079 106.117833853 1462.56830079 85.6399013428M1541.51822417 85.6399013428C1541.51822417 18.7718489987 1522.87016634 3.2104770412e-12 1498.70850283 3.2104770412e-12C1474.52638066 3.2104770412e-12 1455.87832283 18.7718489987 1455.87832283 42.829929054C1455.87832283 66.8800304949 1474.52638066 85.6399013428 1498.70850283 85.6399013428C1522.87016634 85.6399013428 1541.51822417 66.8800304949 1541.51822417 42.829929054"
           transform="matrix(1.000000,0.000000,0.000000,1.000000,0.000000,0.000000)" />
      </g>
    </g>
  </g>
  <g
     inkscape:groupmode="layer"
     id="layer3"
     inkscape:label="necklace fill">
    <path
       transform="matrix(1.000000,0.000000,0.000000,1.000000,0.000000,0.000000)"
       style="opacity:1;stroke-linejoin:miter;stroke-opacity:1;stroke:#0d0000;stroke-linecap:round;stroke-miterlimit:4;stroke-dasharray:none;stroke-width:1.0;display:inline;fill:none"
       d="M65.5 28.6936892896C68.0371025499 35.2683429424 72.8099393719 43.9237190603 79.934228597 46.524500692C86.2935382284 43.1632139468 92.7056725249 34.1797149797 94.498926148 28.5"
       id="path4511"
       inkscape:connector-curvature="0"
       sodipodi:nodetypes="ccc" />
    <circle
       r="1.9420539"
       cy="47.397064"
       cx="79.873192"
       id="path4569"
       style="opacity:1;vector-effect:none;fill:none;fill-opacity:1;stroke:#0d0000;stroke-width:1.00157475;stroke-linecap:round;stroke-linejoin:miter;stroke-miterlimit:4;stroke-dasharray:none;stroke-dashoffset:0;stroke-opacity:1" />
  </g>
</svg>
